<?xml version="1.0" encoding="UTF-8" standalone="no"?>
<!-- Created with Inkscape (http://www.inkscape.org/) -->

<svg
   width="2560"
   height="1440"
   viewBox="0 0 677.33332 381.00001"
   version="1.1"
   id="svg5"
   inkscape:version="1.1 (c4e8f9ed74, 2021-05-24)"
   sodipodi:docname="decentix-logo-new.svg"
   inkscape:export-filename="/home/user/decentix-logo-new.png"
   inkscape:export-xdpi="192"
   inkscape:export-ydpi="192"
   xmlns:inkscape="http://www.inkscape.org/namespaces/inkscape"
   xmlns:sodipodi="http://sodipodi.sourceforge.net/DTD/sodipodi-0.dtd"
   xmlns:xlink="http://www.w3.org/1999/xlink"
   xmlns="http://www.w3.org/2000/svg"
   xmlns:svg="http://www.w3.org/2000/svg">
  <sodipodi:namedview
     id="namedview7"
     pagecolor="#ffffff"
     bordercolor="#111111"
     borderopacity="1"
     inkscape:pageshadow="0"
     inkscape:pageopacity="0"
     inkscape:pagecheckerboard="1"
     inkscape:document-units="mm"
     showgrid="false"
     units="px"
     width="2560px"
     inkscape:zoom="0.55277778"
     inkscape:cx="1279.8995"
     inkscape:cy="721.80904"
     inkscape:window-width="1920"
     inkscape:window-height="1011"
     inkscape:window-x="0"
     inkscape:window-y="0"
     inkscape:window-maximized="1"
     inkscape:current-layer="layer1" />
  <defs
     id="defs2">
    <linearGradient
       inkscape:collect="always"
       id="linearGradient998">
      <stop
         style="stop-color:#cd87de;stop-opacity:1;"
         offset="0"
         id="stop994" />
      <stop
         style="stop-color:#7137c8;stop-opacity:1"
         offset="1"
         id="stop996" />
    </linearGradient>
    <linearGradient
       inkscape:collect="always"
       xlink:href="#linearGradient998"
       id="linearGradient1000"
       x1="0"
       y1="381"
       x2="677.33331"
       y2="0"
       gradientUnits="userSpaceOnUse" />
  </defs>
  <g
     inkscape:label="Layer 1"
     inkscape:groupmode="layer"
     id="layer1">
    <rect
       style="opacity:1;fill:url(#linearGradient1000);stroke:none;stroke-width:0.143444;stroke-linecap:round;stroke-linejoin:round"
       id="rect846"
       width="677.33331"
       height="381"
       x="0"
       y="0" />
    <g
       id="g2464"
       transform="translate(-17.79964)">
      <g
         id="g2439">
        <text
           xml:space="preserve"
           style="font-size:52.9752px;line-height:1.25;font-family:sans-serif;-inkscape-font-specification:sans-serif;fill:#e3d7f4;stroke-width:6.22948"
           x="244.29231"
           y="188.47769"
           id="text4200"><tspan
             sodipodi:role="line"
             id="tspan4198"
             style="font-style:normal;font-variant:normal;font-weight:900;font-stretch:normal;font-family:Jost;-inkscape-font-specification:'Jost Heavy';fill:#e3d7f4;stroke-width:6.22948"
             x="244.29231"
             y="188.47769">DESCENTIX</tspan></text>
        <text
           xml:space="preserve"
           style="font-size:36px;line-height:1.25;font-family:sans-serif;-inkscape-font-specification:sans-serif;fill:#e3d7f4;stroke-width:6.22948"
           x="244.29231"
           y="230.81107"
           id="text10542"><tspan
             sodipodi:role="line"
             id="tspan10540"
             style="font-style:normal;font-variant:normal;font-weight:600;font-stretch:normal;font-size:36px;font-family:Jost;-inkscape-font-specification:'Jost Semi-Bold';fill:#e3d7f4;stroke-width:6.22948"
             x="244.29231"
             y="230.81107">GAMES</tspan></text>
      </g>
      <g
         id="g18081"
         transform="matrix(0.73998566,0,0,0.73998566,35.224159,50.221831)">
        <path
           style="fill:#aa87de;stroke:#e3d7f4;stroke-width:3.96875;stroke-miterlimit:4;stroke-dasharray:none"
           inkscape:label="Triangle"
           d="m 172.82195,155.86082 14.53089,-5.23112 -9.00915,-26.33071 z"
           id="path955"
           sodipodi:nodetypes="cccc" />
        <path
           style="fill:#aa87de;stroke:#e3d7f4;stroke-width:3.96875;stroke-miterlimit:4;stroke-dasharray:none"
           inkscape:label="Triangle"
           d="m 223.97067,155.86082 -14.53088,-5.23112 9.00915,-26.33071 z"
           id="path957"
           sodipodi:nodetypes="cccc" />
        <path
           id="rect10"
           style="fill:#aa87de;fill-opacity:1;stroke:#e3d7f4;stroke-width:3.96875;stroke-miterlimit:4;stroke-dasharray:none"
           d="m 166.34242,222.85384 c 0,8.05009 12.29313,8.71851 20.34324,8.71851 h 23.71259 c 8.05011,0 20.34324,-0.66842 20.34324,-8.71851 z"
           sodipodi:nodetypes="csscc" />
        <path
           id="path865"
           style="fill:#aa87de;fill-opacity:1;stroke:#e3d7f4;stroke-width:3.96875;stroke-miterlimit:4;stroke-dasharray:none"
           d="m 190.2232,148.20957 c -0.82688,0 -1.64336,0.0419 -2.44811,0.12317 -0.80477,0.0812 -1.5979,0.2019 -2.3766,0.36043 -0.7787,0.15854 -1.54333,0.35445 -2.29202,0.58635 -0.7487,0.23189 -1.48134,0.49959 -2.19609,0.8009 -0.71475,0.30131 -1.41139,0.63618 -2.08825,1.00297 -0.67686,0.36679 -1.33401,0.76537 -1.96905,1.19369 -0.63504,0.42832 -1.24809,0.88658 -1.83736,1.37249 -0.58927,0.48591 -1.15476,0.9998 -1.69432,1.53936 -0.53957,0.53957 -1.05289,1.10505 -1.5388,1.69433 -0.48591,0.58927 -0.94417,2.26065 -1.37249,2.89569 -0.42832,0.63504 -0.93639,3.35957 -1.19369,4.08515 -1.1167,3.14904 -1.45344,8.36721 -1.80601,11.81497 -1.08894,10.64858 -1.40865,18.04504 -1.06781,32.6439 h 64.26908 c 0,0 -0.30418,-25.0494 -0.31826,-25.58107 -0.34532,-13.03891 -1.75296,-18.26508 -1.75296,-18.26508 -0.25179,-0.56602 -0.50916,-2.18787 -0.8026,-2.72939 -0.36679,-0.67686 -0.76538,-1.86261 -1.19369,-2.49764 -0.42832,-0.63504 -0.88658,-1.77726 -1.37249,-2.36653 -0.48591,-0.58928 -0.9998,-1.15476 -1.53937,-1.69433 -0.53956,-0.53956 -1.10505,-1.05345 -1.69432,-1.53936 -0.58927,-0.48591 -1.20232,-0.94417 -1.83736,-1.37249 -0.63504,-0.42832 -1.29162,-0.8269 -1.96848,-1.19369 -0.67687,-0.36679 -1.37407,-0.70166 -2.08882,-1.00297 -0.71475,-0.30131 -1.4474,-0.56901 -2.19609,-0.8009 -0.7487,-0.2319 -1.51332,-0.42781 -2.29202,-0.58635 -0.7787,-0.15853 -1.57127,-0.27919 -2.37603,-0.36043 -0.80476,-0.0812 -1.6218,-0.12317 -2.44868,-0.12317 z"
           sodipodi:nodetypes="sssssssssssssccscsssssssssssss" />
        <ellipse
           style="fill:#aa87de;fill-opacity:1;stroke:#e3d7f4;stroke-width:3.96875;stroke-miterlimit:4;stroke-dasharray:none"
           id="ellipse183"
           cx="184.67027"
           cy="174.5217"
           rx="12.121986"
           ry="19.678936" />
        <ellipse
           style="fill:#aa87de;fill-opacity:1;stroke:#e3d7f4;stroke-width:3.96875;stroke-miterlimit:4;stroke-dasharray:none"
           id="ellipse874"
           cx="211.4071"
           cy="174.5217"
           rx="12.121986"
           ry="19.678936" />
        <circle
           style="fill:#aa87de;fill-opacity:1;stroke:#e3d7f4;stroke-width:3.96875;stroke-miterlimit:4;stroke-dasharray:none"
           id="path876"
           cx="182.5536"
           cy="173.67638"
           r="5.2114434" />
        <circle
           style="fill:#aa87de;fill-opacity:1;stroke:#e3d7f4;stroke-width:3.96875;stroke-miterlimit:4;stroke-dasharray:none"
           id="circle878"
           cx="209.29042"
           cy="173.67638"
           r="5.2114434" />
        <path
           id="path906"
           style="fill:#aa87de;fill-opacity:1;stroke:#e3d7f4;stroke-width:3.96875;stroke-miterlimit:4;stroke-dasharray:none"
           d="m 177.48174,197.54188 c -9.59548,0 -17.32039,7.7244 -17.32039,17.31987 v 4.14807 c 0,2.29799 1.84956,4.14806 4.14755,4.14806 h 68.46611 c 2.29799,0 4.14755,-1.85007 4.14755,-4.14806 v -4.14807 c 0,-9.59547 -7.72492,-17.31987 -17.32039,-17.31987 z" />
        <path
           style="fill:#aa87de;stroke:#e3d7f4;stroke-width:3.96875;stroke-miterlimit:4;stroke-dasharray:none"
           inkscape:label="Triangle"
           d="m 164.22977,223.15795 h 14.53089 l -7.26544,25.16823 z"
           id="path948" />
        <path
           style="fill:#aa87de;stroke:#e3d7f4;stroke-width:3.96875;stroke-miterlimit:4;stroke-dasharray:none"
           inkscape:label="Triangle"
           d="m 218.32325,223.15795 h 14.53089 l -7.26545,25.16823 z"
           id="path953" />
        <circle
           style="fill:#aa87de;fill-opacity:1;stroke:#e3d7f4;stroke-width:3.96875;stroke-miterlimit:4;stroke-dasharray:none"
           id="path959"
           cx="176.61844"
           cy="210.34981"
           r="4.8326015" />
        <circle
           style="fill:#aa87de;fill-opacity:1;stroke:#e3d7f4;stroke-width:3.96875;stroke-miterlimit:4;stroke-dasharray:none"
           id="circle125"
           cx="220.46547"
           cy="210.34981"
           r="4.8326015" />
        <circle
           style="fill:#aa87de;fill-opacity:1;stroke:#e3d7f4;stroke-width:3.96875;stroke-miterlimit:4;stroke-dasharray:none"
           id="circle169"
           cx="182.5536"
           cy="173.67638"
           r="2.6689732" />
        <circle
           style="fill:#aa87de;fill-opacity:1;stroke:#e3d7f4;stroke-width:3.96875;stroke-miterlimit:4;stroke-dasharray:none"
           id="circle173"
           cx="209.29042"
           cy="173.67638"
           r="2.6689732" />
        <circle
           style="fill:#aa87de;fill-opacity:1;stroke:#e3d7f4;stroke-width:3.96875;stroke-miterlimit:4;stroke-dasharray:none"
           id="circle187"
           cx="180.43694"
           cy="172.08888"
           r="2.6689732" />
        <circle
           style="fill:#aa87de;fill-opacity:1;stroke:#e3d7f4;stroke-width:3.96875;stroke-miterlimit:4;stroke-dasharray:none"
           id="circle197"
           cx="207.17375"
           cy="172.08888"
           r="2.6689732" />
      </g>
    </g>
  </g>
</svg>
