<?xml version="1.0" encoding="UTF-8" standalone="no"?>
<!-- Created with Inkscape (http://www.inkscape.org/) -->

<svg
   width="87.080414mm"
   height="42.32642mm"
   viewBox="0 0 87.080414 42.32642"
   version="1.1"
   id="svg5"
   inkscape:version="1.1 (c4e8f9ed74, 2021-05-24)"
   sodipodi:docname="dglogo1.svg"
   inkscape:export-filename="/home/user/dglogo1.png"
   inkscape:export-xdpi="24"
   inkscape:export-ydpi="24"
   xmlns:inkscape="http://www.inkscape.org/namespaces/inkscape"
   xmlns:sodipodi="http://sodipodi.sourceforge.net/DTD/sodipodi-0.dtd"
   xmlns="http://www.w3.org/2000/svg"
   xmlns:svg="http://www.w3.org/2000/svg">
  <sodipodi:namedview
     id="namedview7"
     pagecolor="#ffffff"
     bordercolor="#111111"
     borderopacity="1"
     inkscape:pageshadow="0"
     inkscape:pageopacity="0"
     inkscape:pagecheckerboard="1"
     inkscape:document-units="mm"
     showgrid="false"
     fit-margin-top="0"
     fit-margin-left="0"
     fit-margin-right="0"
     fit-margin-bottom="0"
     inkscape:zoom="2.1506845"
     inkscape:cx="191.33443"
     inkscape:cy="99.968172"
     inkscape:window-width="1920"
     inkscape:window-height="1011"
     inkscape:window-x="0"
     inkscape:window-y="0"
     inkscape:window-maximized="1"
     inkscape:current-layer="layer1" />
  <defs
     id="defs2" />
  <g
     inkscape:label="Layer 1"
     inkscape:groupmode="layer"
     id="layer1"
     transform="translate(-54.348559,-121.87679)">
    <path
       d="m 55.144687,122.46062 h 5.068682 q 2.282233,0 4.007177,0.79613 1.724944,0.79613 2.706835,2.14955 0.981892,1.35341 1.433031,2.94567 0.477677,1.59225 0.477677,3.39681 0,1.72495 -0.45114,3.29066 -0.424601,1.53918 -1.379955,2.94568 -0.928816,1.37995 -2.706835,2.22916 -1.778019,0.82266 -4.192941,0.82266 h -4.962531 z m 5.254445,16.42678 q 1.645331,0 2.866061,-0.61037 1.247267,-0.6369 1.910707,-1.69841 0.66344,-1.08804 0.955354,-2.28223 0.318451,-1.19419 0.318451,-2.54761 0,-1.91071 -0.55729,-3.47642 -0.557289,-1.56572 -1.910707,-2.62723 -1.353418,-1.0615 -3.290662,-1.0615 h -3.237588 v 14.30377 z"
       style="font-size:26.5376px;line-height:1.25;font-family:Overpass;-inkscape-font-specification:Overpass;fill:#ffffff;stroke-width:3.12062"
       id="path3777" />
    <path
       d="m 79.131486,141.35539 q -2.759911,0 -4.405242,-1.96378 -1.618793,-1.99032 -1.618793,-5.14829 0,-3.3172 1.645331,-5.20137 1.645331,-1.88417 4.378704,-1.88417 2.441459,0 4.007177,1.64533 1.592256,1.61879 1.592256,4.8033 0,0.74306 -0.07961,1.53918 H 75.4693 q 0.132688,1.85764 1.141117,2.99875 1.034966,1.11458 2.574147,1.11458 1.698406,0 2.919136,-1.22073 l 1.406493,1.56572 q -1.751482,1.75148 -4.378704,1.75148 z m -3.688727,-8.17358 h 6.952852 q -0.02654,-2.09647 -1.008429,-3.02528 -0.955354,-0.95536 -2.255696,-0.95536 -1.565719,0 -2.574147,1.00843 -1.008429,0.98189 -1.11458,2.97221 z"
       style="font-size:26.5376px;line-height:1.25;font-family:Overpass;-inkscape-font-specification:Overpass;fill:#ffffff;stroke-width:3.12062"
       id="path3779" />
    <path
       d="m 94.068936,141.35539 q -2.600685,0 -4.113328,-1.85763 -1.512644,-1.88417 -1.512644,-5.22791 0,-3.34373 1.512644,-5.2279 1.53918,-1.88417 4.219478,-1.88417 3.609113,0 4.75023,3.15797 l -2.176083,0.79613 q -0.689978,-1.80456 -2.547609,-1.80456 -1.698407,0 -2.54761,1.30034 -0.849203,1.30035 -0.849203,3.66219 0,2.33531 0.849203,3.63565 0.849203,1.27381 2.467997,1.27381 2.123008,0 2.75991,-2.01686 l 2.149546,0.71652 q -0.504215,1.67187 -1.804557,2.57414 -1.273805,0.90228 -3.157974,0.90228 z"
       style="font-size:26.5376px;line-height:1.25;font-family:Overpass;-inkscape-font-specification:Overpass;fill:#ffffff;stroke-width:3.12062"
       id="path3781" />
    <path
       d="m 108.7941,141.35539 q -2.75991,0 -4.40524,-1.96378 -1.6188,-1.99032 -1.6188,-5.14829 0,-3.3172 1.64534,-5.20137 1.64533,-1.88417 4.3787,-1.88417 2.44146,0 4.00718,1.64533 1.59225,1.61879 1.59225,4.8033 0,0.74306 -0.0796,1.53918 h -9.18201 q 0.13269,1.85764 1.14112,2.99875 1.03497,1.11458 2.57415,1.11458 1.6984,0 2.91913,-1.22073 l 1.40649,1.56572 q -1.75148,1.75148 -4.3787,1.75148 z m -3.68873,-8.17358 h 6.95286 q -0.0265,-2.09647 -1.00843,-3.02528 -0.95536,-0.95536 -2.2557,-0.95536 -1.56572,0 -2.57415,1.00843 -1.00843,0.98189 -1.11458,2.97221 z"
       style="font-size:26.5376px;line-height:1.25;font-family:Overpass;-inkscape-font-specification:Overpass;fill:#ffffff;stroke-width:3.12062"
       id="path3783" />
    <path
       d="m 127.26106,141.03694 v -8.20012 q 0,-1.83109 -0.79613,-2.68029 -0.76959,-0.87575 -2.12301,-0.87575 -3.13144,0 -3.13144,3.50297 v 8.25319 h -2.30877 v -13.56071 h 2.30877 v 1.37995 q 1.24727,-1.6984 3.50297,-1.6984 2.38838,0 3.60911,1.45956 1.24727,1.43304 1.24727,4.61755 v 7.80205 z"
       style="font-size:26.5376px;line-height:1.25;font-family:Overpass;-inkscape-font-specification:Overpass;fill:#ffffff;stroke-width:3.12062"
       id="path3785" />
    <path
       d="m 138.56291,141.35539 q -2.86606,0 -2.86606,-3.23758 v -8.62472 h -2.20262 v -2.01686 h 2.20262 v -4.48486 l 2.30877,-1.11458 v 5.59944 h 3.34374 v 2.01686 h -3.34374 v 7.85513 q 0,0.90227 0.29191,1.37995 0.29192,0.47768 1.11458,0.47768 0.90228,0 2.01686,-0.71652 l -0.26538,2.2557 q -1.16765,0.61036 -2.60068,0.61036 z"
       style="font-size:26.5376px;line-height:1.25;font-family:Overpass;-inkscape-font-specification:Overpass;fill:#ffffff;stroke-width:3.12062"
       id="path3787" />
    <path
       d="m 62.230226,164.20321 q -2.043395,0 -3.609113,-0.79613 -1.539181,-0.82267 -2.467997,-2.20262 -0.902278,-1.37996 -1.353418,-3.05182 -0.451139,-1.67187 -0.451139,-3.55604 0,-1.85763 0.477677,-3.5295 0.477677,-1.69841 1.406493,-3.05183 0.928816,-1.37995 2.467997,-2.20262 1.565718,-0.82266 3.5295,-0.82266 2.361847,0 3.715264,0.87574 1.379955,0.87574 2.308771,2.38838 l -2.069932,1.19419 q -0.743053,-1.08804 -1.645331,-1.67187 -0.902279,-0.61036 -2.308772,-0.61036 -1.194192,0 -2.149545,0.45114 -0.955354,0.45114 -1.565719,1.19419 -0.610364,0.71652 -1.034966,1.69841 -0.398064,0.98189 -0.583827,2.01685 -0.159226,1.00843 -0.159226,2.06994 0,3.13143 1.379955,5.28098 1.379956,2.12301 4.113328,2.12301 1.88417,0 3.025287,-1.16766 1.141117,-1.19419 1.141117,-3.1049 v -0.74305 h -3.370276 v -2.12301 h 5.785197 v 2.22916 q 0,3.37028 -1.857632,5.25445 -1.831094,1.85763 -4.723693,1.85763 z"
       style="font-size:26.5376px;line-height:1.25;font-family:Overpass;-inkscape-font-specification:Overpass;fill:#ffffff;stroke-width:3.12062"
       id="path3789" />
    <path
       d="m 79.721668,163.88476 v -1.24727 q -1.671869,1.56572 -3.847952,1.56572 -2.149545,0 -3.449888,-1.16766 -1.273805,-1.19419 -1.273805,-3.39681 0,-2.20262 1.459568,-3.34374 1.459568,-1.14111 3.609114,-1.14111 1.963782,0 3.502963,0.87574 v -0.95536 q 0,-1.6984 -0.76959,-2.36184 -0.743053,-0.68998 -2.176083,-0.68998 -2.043396,0 -3.954103,1.35342 l -0.66344,-1.93725 q 2.176083,-1.43303 4.909456,-1.43303 4.829843,0 4.829843,4.88292 v 8.99625 z m -3.502963,-1.72495 q 1.99032,0 3.502963,-1.77802 v -2.3353 q -1.459568,-0.90228 -3.184512,-0.90228 -1.406493,0 -2.308771,0.6369 -0.902278,0.6369 -0.902278,1.85763 0,1.14112 0.743052,1.8311 0.769591,0.68997 2.149546,0.68997 z"
       style="font-size:26.5376px;line-height:1.25;font-family:Overpass;-inkscape-font-specification:Overpass;fill:#ffffff;stroke-width:3.12062"
       id="path3791" />
    <path
       d="m 100.74258,163.88476 v -8.22666 q 0,-3.5295 -2.733358,-3.5295 -1.300346,0 -2.123012,1.00843 -0.796128,0.98189 -0.796128,2.60068 v 8.14705 h -2.308771 v -8.22666 q 0,-3.5295 -2.706835,-3.5295 -1.353417,0 -2.149545,0.95535 -0.769591,0.92882 -0.769591,2.54761 v 8.2532 h -2.308771 v -13.56072 h 2.308771 v 1.27381 q 1.194192,-1.59226 3.556039,-1.59226 1.141116,0 2.09647,0.53075 0.981891,0.50422 1.539181,1.45957 1.300342,-1.99032 3.927562,-1.99032 2.122998,0 3.449878,1.30035 1.32688,1.30034 1.32688,3.68872 v 8.8901 z"
       style="font-size:26.5376px;line-height:1.25;font-family:Overpass;-inkscape-font-specification:Overpass;fill:#ffffff;stroke-width:3.12062"
       id="path3793" />
    <path
       d="m 111.4669,164.20321 q -2.75991,0 -4.40524,-1.96378 -1.61879,-1.99032 -1.61879,-5.1483 0,-3.3172 1.64533,-5.20137 1.64533,-1.88417 4.3787,-1.88417 2.44146,0 4.00718,1.64533 1.59226,1.6188 1.59226,4.80331 0,0.74305 -0.0796,1.53918 h -9.18201 q 0.13269,1.85763 1.14112,2.99875 1.03497,1.11458 2.57415,1.11458 1.6984,0 2.91913,-1.22073 l 1.4065,1.56572 q -1.75148,1.75148 -4.37871,1.75148 z m -3.68872,-8.17358 h 6.95285 q -0.0265,-2.09647 -1.00843,-3.02529 -0.95535,-0.95535 -2.2557,-0.95535 -1.56572,0 -2.57414,1.00843 -1.00843,0.98189 -1.11458,2.97221 z"
       style="font-size:26.5376px;line-height:1.25;font-family:Overpass;-inkscape-font-specification:Overpass;fill:#ffffff;stroke-width:3.12062"
       id="path3795" />
    <path
       d="m 123.46501,164.20321 q -1.45956,0 -2.78644,-0.61037 -1.30035,-0.6369 -2.12301,-1.67187 l 1.64533,-1.40649 q 1.51264,1.6188 3.3172,1.6188 1.14112,0 1.83109,-0.42461 0.68998,-0.45114 0.68998,-1.30034 0,-0.6369 -0.50421,-1.14112 -0.50422,-0.53075 -1.03497,-0.76959 -0.53075,-0.26537 -1.56572,-0.66344 -2.06993,-0.76959 -3.13144,-1.72494 -1.0615,-0.95535 -1.0615,-2.52107 0,-1.64533 1.27381,-2.60069 1.30034,-0.98189 3.29066,-0.98189 2.83952,0 4.56446,2.0434 l -1.59225,1.32688 q -1.24727,-1.30034 -2.99875,-1.30034 -1.03497,0 -1.64533,0.39806 -0.61037,0.39806 -0.61037,1.11458 0,0.39806 0.18577,0.74305 0.2123,0.31845 0.71651,0.61037 0.53075,0.29191 0.82267,0.45114 0.31845,0.13268 1.14111,0.45113 2.14955,0.76959 3.26413,1.75149 1.14112,0.98189 1.14112,2.75991 0,1.80455 -1.30035,2.83952 -1.30034,1.00843 -3.5295,1.00843 z"
       style="font-size:26.5376px;line-height:1.25;font-family:Overpass;-inkscape-font-specification:Overpass;fill:#ffffff;stroke-width:3.12062"
       id="path3797" />
  </g>
</svg>
