<?xml version="1.0" encoding="UTF-8" standalone="no"?>
<svg
   xmlns:dc="http://purl.org/dc/elements/1.1/"
   xmlns:cc="http://creativecommons.org/ns#"
   xmlns:rdf="http://www.w3.org/1999/02/22-rdf-syntax-ns#"
   xmlns:svg="http://www.w3.org/2000/svg"
   xmlns="http://www.w3.org/2000/svg"
   xmlns:xlink="http://www.w3.org/1999/xlink"
   xmlns:sodipodi="http://sodipodi.sourceforge.net/DTD/sodipodi-0.dtd"
   xmlns:inkscape="http://www.inkscape.org/namespaces/inkscape"
   width="512"
   height="512"
   viewBox="0 0 135.46666 135.46667"
   version="1.1"
   id="svg8"
   sodipodi:docname="qricon2.svg"
   inkscape:version="1.0.1 (3bc2e813f5, 2020-09-07, custom)"
   inkscape:export-filename="/home/user/icon_new.png"
   inkscape:export-xdpi="96.000008"
   inkscape:export-ydpi="96.000008">
  <defs
     id="defs2">
    <linearGradient
       inkscape:collect="always"
       id="linearGradient1031">
      <stop
         style="stop-color:#ff7d00;stop-opacity:1"
         offset="0"
         id="stop1027" />
      <stop
         style="stop-color:#ff4300;stop-opacity:1"
         offset="1"
         id="stop1029" />
    </linearGradient>
    <linearGradient
       inkscape:collect="always"
       xlink:href="#linearGradient1031"
       id="linearGradient1033"
       x1="135.46666"
       y1="0"
       x2="0"
       y2="135.46666"
       gradientUnits="userSpaceOnUse" />
  </defs>
  <sodipodi:namedview
     id="base"
     pagecolor="#ffffff"
     bordercolor="#666666"
     borderopacity="1.0"
     inkscape:pageopacity="0.0"
     inkscape:pageshadow="2"
     inkscape:zoom="0.3"
     inkscape:cx="256"
     inkscape:cy="256"
     inkscape:document-units="px"
     inkscape:current-layer="layer1"
     inkscape:document-rotation="0"
     showgrid="false"
     units="px"
     inkscape:window-width="1920"
     inkscape:window-height="1011"
     inkscape:window-x="0"
     inkscape:window-y="0"
     inkscape:window-maximized="1" />
  <metadata
     id="metadata5">
    <rdf:RDF>
      <cc:Work
         rdf:about="">
        <dc:format>image/svg+xml</dc:format>
        <dc:type
           rdf:resource="http://purl.org/dc/dcmitype/StillImage" />
        <dc:title></dc:title>
      </cc:Work>
    </rdf:RDF>
  </metadata>
  <g
     inkscape:label="Layer 1"
     inkscape:groupmode="layer"
     id="layer1">
    <rect
       style="fill:url(#linearGradient1033);fill-opacity:1;stroke:none;stroke-width:2.64583"
       id="rect978"
       width="135.46666"
       height="135.46666"
       x="0"
       y="0"
       ry="25.4" />
    <g
       id="g1025"
       transform="matrix(1.0983976,0,0,1.0983976,-1.7907034,-0.51939438)">
      <path
         style="fill:#f2f2f2;stroke:none;stroke-width:0.374178"
         inkscape:label="Triangle"
         d="M 39.879947,36.82345 53.109114,32.06095 44.90703,8.0890244 Z"
         id="path955"
         sodipodi:nodetypes="cccc" />
      <path
         style="fill:#f2f2f2;stroke:none;stroke-width:0.374178"
         inkscape:label="Triangle"
         d="M 86.446617,36.82345 73.21745,32.06095 81.419534,8.0890244 Z"
         id="path957"
         sodipodi:nodetypes="cccc" />
      <path
         style="fill:#cccccc;stroke:none;stroke-width:0.264583px;stroke-linecap:butt;stroke-linejoin:miter;stroke-opacity:1"
         d="m 44.90703,8.0890244 8.202083,23.9719266 -3.452661,1.248704 z"
         id="path972" />
      <path
         style="fill:#cccccc;stroke:none;stroke-width:0.264583px;stroke-linecap:butt;stroke-linejoin:miter;stroke-opacity:1"
         d="M 81.419535,8.0890244 86.446618,36.823451 82.535383,35.41256 Z"
         id="path976" />
      <path
         id="rect10"
         style="fill:#217844;fill-opacity:1;stroke-width:2.4499"
         d="m 33.980871,92.997418 c 0,7.328942 11.191875,7.937482 18.520833,7.937482 H 74.09005 c 7.328958,0 18.520833,-0.60854 18.520833,-7.937482 z"
         sodipodi:nodetypes="csscc" />
      <path
         id="path865"
         style="fill:#37c871;fill-opacity:1;stroke-width:2.4499"
         d="m 55.722337,29.857621 c -0.752803,0 -1.496137,0.03818 -2.228802,0.112139 -0.732669,0.07396 -1.454754,0.183808 -2.163694,0.328144 -0.708938,0.144335 -1.40507,0.322696 -2.086695,0.533818 -0.681625,0.211121 -1.348639,0.454834 -1.999361,0.729154 -0.650721,0.27432 -1.284946,0.579194 -1.901174,0.913122 -0.61623,0.333928 -1.214506,0.696807 -1.792655,1.086755 -0.578152,0.389951 -1.136285,0.807157 -1.672767,1.249537 -0.536483,0.442381 -1.051317,0.910238 -1.542542,1.401464 -0.491226,0.491228 -0.958567,1.006059 -1.400948,1.542542 -0.442381,0.536482 -0.859586,1.094616 -1.249537,1.672767 -0.389948,0.578149 -0.852501,1.131554 -1.086755,1.792139 -1.016661,2.866943 -1.323237,5.6906 -1.644226,8.829498 -0.991386,9.694656 -1.282457,16.428516 -0.972151,29.719569 h 58.511672 c 0,0 -0.276929,-22.805406 -0.289748,-23.289445 C 91.888566,44.607978 90.60703,42.740557 90.60703,42.740557 90.377797,42.225238 90.143483,41.712211 89.876325,41.219202 89.542397,40.602972 89.179518,40.005212 88.78957,39.427063 88.399622,38.848912 87.982416,38.290778 87.540033,37.754296 87.097652,37.217813 86.629795,36.702982 86.138569,36.211754 85.647344,35.720528 85.13251,35.252671 84.596027,34.81029 84.059545,34.36791 83.501412,33.950704 82.923263,33.560753 82.345111,33.170805 81.747354,32.807926 81.131123,32.473998 80.514893,32.14007 79.880152,31.835196 79.229431,31.560876 78.578709,31.286556 77.911695,31.042843 77.23007,30.831722 76.548445,30.6206 75.852316,30.442239 75.143375,30.297904 74.434435,30.153568 73.712866,30.043721 72.9802,29.96976 72.247532,29.895798 71.503682,29.857621 70.750879,29.857621 Z"
         sodipodi:nodetypes="sssssssssssssccscsssssssssssss" />
      <ellipse
         style="fill:#ffffff;fill-opacity:1;stroke-width:2.64583"
         id="path872"
         cx="50.666862"
         cy="52.561279"
         rx="11.036064"
         ry="15.795057" />
      <ellipse
         style="fill:#ffffff;fill-opacity:1;stroke-width:2.64583"
         id="ellipse874"
         cx="75.00853"
         cy="52.561279"
         rx="11.036064"
         ry="15.795057" />
      <circle
         style="fill:#1a1a1a;fill-opacity:1;stroke-width:2.64583"
         id="path876"
         cx="50.666862"
         cy="52.561279"
         r="4.7445874" />
      <circle
         style="fill:#1a1a1a;fill-opacity:1;stroke-width:2.64583"
         id="circle878"
         cx="75.00853"
         cy="52.561279"
         r="4.7445874" />
      <path
         id="path967"
         style="fill:#2ca05a;fill-opacity:1;stroke-width:9.25946"
         d="m 263.4043,112.84766 c 2.84524,0 5.65664,0.14428 8.42578,0.42382 2.76913,0.27954 5.49632,0.69472 8.17578,1.24024 2.67946,0.54552 5.3105,1.21964 7.88672,2.01758 2.57622,0.79793 5.09722,1.71906 7.55664,2.75586 2.45942,1.0368 4.85844,2.18908 7.1875,3.45117 2.32906,1.26209 4.58829,2.6336 6.77344,4.10742 2.18513,1.47383 4.29461,3.05067 6.32226,4.72266 2.02765,1.67199 3.97348,3.44027 5.83008,5.29687 1.8566,1.85661 3.62488,3.80243 5.29688,5.83008 1.67199,2.02765 3.24883,4.13713 4.72265,6.32226 1.47382,2.18514 2.84533,4.44438 4.10742,6.77344 1.00973,1.86334 1.89533,3.80234 2.76172,5.75 0,0 4.84497,7.05764 6.03321,51.92383 0.0484,1.82944 1.09374,88.02344 1.09374,88.02344 h 4 c 0,0 -1.0453,-86.194 -1.09374,-88.02344 -1.18824,-44.86619 -6.03321,-51.92383 -6.03321,-51.92383 -0.86639,-1.94766 -1.75199,-3.88666 -2.76172,-5.75 -1.26209,-2.32906 -2.6336,-4.5883 -4.10742,-6.77344 -1.47382,-2.18513 -3.05066,-4.29461 -4.72265,-6.32226 -1.672,-2.02765 -3.44028,-3.97347 -5.29688,-5.83008 -1.8566,-1.8566 -3.80243,-3.62488 -5.83008,-5.29687 -2.02765,-1.67199 -4.13713,-3.24883 -6.32226,-4.72266 -2.18515,-1.47382 -4.44438,-2.84533 -6.77344,-4.10742 -2.32906,-1.26209 -4.72808,-2.41437 -7.1875,-3.45117 -2.45942,-1.0368 -4.98042,-1.95793 -7.55664,-2.75586 -2.57622,-0.79794 -5.20726,-1.47206 -7.88672,-2.01758 -2.67946,-0.54552 -5.40665,-0.9607 -8.17578,-1.24024 -2.76914,-0.27954 -5.58054,-0.42382 -8.42578,-0.42382 z"
         transform="scale(0.26458333)" />
      <g
         id="g916"
         style="fill:#5fd38d"
         transform="matrix(1.1919684,0,0,1.1919684,-12.15081,-21.974721)">
        <path
           id="path906"
           style="fill:#5fd38d;fill-opacity:1;stroke-width:2.4499"
           d="m 33.980871,90.351586 h 58.630012 c 0,-7.328952 -5.900208,-13.229163 -13.229166,-13.229163 h -32.17168 c -7.328958,0 -13.229166,5.900211 -13.229166,13.229163 z" />
        <rect
           style="fill:#5fd38d;fill-opacity:1;stroke-width:1.67157"
           id="rect912"
           width="58.630013"
           height="6.3363829"
           x="33.980869"
           y="90.351593"
           ry="0" />
      </g>
      <path
         style="fill:#f2f2f2;stroke:none;stroke-width:0.374178"
         inkscape:label="Triangle"
         d="M 32.057478,93.274288 H 45.286645 L 38.672061,116.18788 Z"
         id="path948" />
      <path
         style="fill:#f2f2f2;stroke:none;stroke-width:0.374178"
         inkscape:label="Triangle"
         d="M 81.305106,93.274288 H 94.534273 L 87.919689,116.18788 Z"
         id="path953" />
      <circle
         style="fill:#000000;fill-opacity:1;stroke:none;stroke-width:2.9761"
         id="path959"
         cx="43.33633"
         cy="81.613533"
         r="4.3996835" />
      <circle
         style="fill:#000000;fill-opacity:1;stroke:none;stroke-width:2.9761"
         id="circle961"
         cx="83.255424"
         cy="81.613533"
         r="4.3996835" />
      <path
         style="fill:#cccccc;stroke:none;stroke-width:0.264583px;stroke-linecap:butt;stroke-linejoin:miter;stroke-opacity:1"
         d="M 38.67206,116.18788 45.286644,93.274289 H 43.325105 Z"
         id="path963" />
      <path
         style="fill:#cccccc;stroke:none;stroke-width:0.264583px;stroke-linecap:butt;stroke-linejoin:miter;stroke-opacity:1"
         d="M 87.919689,116.18788 94.534273,93.274288 H 92.572734 Z"
         id="path965" />
      <rect
         style="fill:#2ca05a;fill-opacity:1;stroke-width:0.656651"
         id="rect982"
         width="69.885124"
         height="0.82034439"
         x="28.353312"
         y="92.453941"
         ry="0" />
      <path
         id="ellipse988"
         style="fill:#cccccc;fill-opacity:1;stroke-width:9.99999"
         d="m 158.60156,161.95508 a 41.711109,59.697854 0 0 0 -8.8164,36.70117 41.711109,59.697854 0 0 0 41.71093,59.69922 41.711109,59.697854 0 0 0 34.89649,-26.99609 41.711109,59.697854 0 0 1 -32.89649,22.99609 41.711109,59.697854 0 0 1 -41.71093,-59.69922 41.711109,59.697854 0 0 1 6.8164,-32.70117 z"
         transform="scale(0.26458333)" />
      <path
         id="ellipse990"
         style="fill:#cccccc;fill-opacity:1;stroke-width:9.99999"
         d="m 250.60156,161.95508 a 41.711109,59.697854 0 0 0 -8.8164,36.70117 41.711109,59.697854 0 0 0 41.71093,59.69922 41.711109,59.697854 0 0 0 34.89649,-26.99609 41.711109,59.697854 0 0 1 -32.89649,22.99609 41.711109,59.697854 0 0 1 -41.71093,-59.69922 41.711109,59.697854 0 0 1 6.8164,-32.70117 z"
         transform="scale(0.26458333)" />
    </g>
  </g>
</svg>
