<?xml version="1.0" encoding="UTF-8" standalone="no"?>
<svg
   xmlns:dc="http://purl.org/dc/elements/1.1/"
   xmlns:cc="http://creativecommons.org/ns#"
   xmlns:rdf="http://www.w3.org/1999/02/22-rdf-syntax-ns#"
   xmlns:svg="http://www.w3.org/2000/svg"
   xmlns="http://www.w3.org/2000/svg"
   xmlns:xlink="http://www.w3.org/1999/xlink"
   xmlns:sodipodi="http://sodipodi.sourceforge.net/DTD/sodipodi-0.dtd"
   xmlns:inkscape="http://www.inkscape.org/namespaces/inkscape"
   width="512"
   height="512"
   viewBox="0 0 135.46666 135.46667"
   version="1.1"
   id="svg8"
   sodipodi:docname="qricon3.svg"
   inkscape:version="1.0.2 (e86c870879, 2021-01-15)"
   inkscape:export-filename="/home/user/icon_new.png"
   inkscape:export-xdpi="96.000008"
   inkscape:export-ydpi="96.000008">
  <defs
     id="defs2">
    <linearGradient
       inkscape:collect="always"
       id="linearGradient184">
      <stop
         style="stop-color:#999999;stop-opacity:1;"
         offset="0"
         id="stop180" />
      <stop
         style="stop-color:#999999;stop-opacity:0;"
         offset="1"
         id="stop182" />
    </linearGradient>
    <linearGradient
       inkscape:collect="always"
       id="linearGradient164">
      <stop
         style="stop-color:#17280b;stop-opacity:1;"
         offset="0"
         id="stop160" />
      <stop
         style="stop-color:#17280b;stop-opacity:0;"
         offset="1"
         id="stop162" />
    </linearGradient>
    <linearGradient
       inkscape:collect="always"
       id="linearGradient156">
      <stop
         style="stop-color:#17280b;stop-opacity:1;"
         offset="0"
         id="stop152" />
      <stop
         style="stop-color:#17280b;stop-opacity:0;"
         offset="1"
         id="stop154" />
    </linearGradient>
    <linearGradient
       inkscape:collect="always"
       id="linearGradient144">
      <stop
         style="stop-color:#89a02c;stop-opacity:1"
         offset="0"
         id="stop140" />
      <stop
         style="stop-color:#008000;stop-opacity:0;"
         offset="1"
         id="stop142" />
    </linearGradient>
    <linearGradient
       inkscape:collect="always"
       id="linearGradient116">
      <stop
         style="stop-color:#000000;stop-opacity:0;"
         offset="0"
         id="stop114" />
      <stop
         style="stop-color:#000000;stop-opacity:1;"
         offset="1"
         id="stop112" />
    </linearGradient>
    <linearGradient
       inkscape:collect="always"
       id="linearGradient108">
      <stop
         style="stop-color:#000000;stop-opacity:0;"
         offset="0"
         id="stop106" />
      <stop
         style="stop-color:#000000;stop-opacity:1;"
         offset="1"
         id="stop104" />
    </linearGradient>
    <linearGradient
       inkscape:collect="always"
       id="linearGradient98">
      <stop
         style="stop-color:#000000;stop-opacity:0;"
         offset="0"
         id="stop96" />
      <stop
         style="stop-color:#000000;stop-opacity:1;"
         offset="1"
         id="stop94" />
    </linearGradient>
    <linearGradient
       inkscape:collect="always"
       id="linearGradient90">
      <stop
         style="stop-color:#000000;stop-opacity:0;"
         offset="0"
         id="stop88" />
      <stop
         style="stop-color:#000000;stop-opacity:1;"
         offset="1"
         id="stop86" />
    </linearGradient>
    <linearGradient
       inkscape:collect="always"
       id="linearGradient74">
      <stop
         style="stop-color:#abc837;stop-opacity:1"
         offset="0"
         id="stop70" />
      <stop
         style="stop-color:#008000;stop-opacity:0;"
         offset="1"
         id="stop72" />
    </linearGradient>
    <linearGradient
       inkscape:collect="always"
       id="linearGradient1031">
      <stop
         style="stop-color:#d3bc5f;stop-opacity:1"
         offset="0"
         id="stop1027" />
      <stop
         style="stop-color:#c83737;stop-opacity:1"
         offset="1"
         id="stop1029" />
    </linearGradient>
    <linearGradient
       inkscape:collect="always"
       xlink:href="#linearGradient1031"
       id="linearGradient1033"
       x1="135.46666"
       y1="135.46666"
       x2="0"
       y2="0"
       gradientUnits="userSpaceOnUse" />
    <linearGradient
       inkscape:collect="always"
       xlink:href="#linearGradient74"
       id="linearGradient76"
       x1="403.25534"
       y1="322.60461"
       x2="280.91687"
       y2="356.43765"
       gradientUnits="userSpaceOnUse" />
    <linearGradient
       inkscape:collect="always"
       xlink:href="#linearGradient90"
       id="linearGradient92"
       x1="48.116219"
       y1="24.146482"
       x2="56.54422"
       y2="24.146483"
       gradientUnits="userSpaceOnUse" />
    <linearGradient
       inkscape:collect="always"
       xlink:href="#linearGradient98"
       id="linearGradient100"
       x1="86.479881"
       y1="24.146482"
       x2="93.162053"
       y2="24.146483"
       gradientUnits="userSpaceOnUse" />
    <linearGradient
       inkscape:collect="always"
       xlink:href="#linearGradient108"
       id="linearGradient110"
       x1="40.556934"
       y1="114.51698"
       x2="47.952039"
       y2="114.51698"
       gradientUnits="userSpaceOnUse" />
    <linearGradient
       inkscape:collect="always"
       xlink:href="#linearGradient116"
       id="linearGradient118"
       x1="94.393784"
       y1="114.51698"
       x2="102.04552"
       y2="114.51698"
       gradientUnits="userSpaceOnUse" />
    <linearGradient
       inkscape:collect="always"
       xlink:href="#linearGradient144"
       id="linearGradient146"
       x1="99.280533"
       y1="62.690586"
       x2="79.249237"
       y2="64.299797"
       gradientUnits="userSpaceOnUse" />
    <linearGradient
       inkscape:collect="always"
       xlink:href="#linearGradient156"
       id="linearGradient158"
       x1="40.660892"
       y1="94.130363"
       x2="50.25359"
       y2="85.215195"
       gradientUnits="userSpaceOnUse" />
    <linearGradient
       inkscape:collect="always"
       xlink:href="#linearGradient164"
       id="linearGradient166"
       x1="85.353729"
       y1="94.466362"
       x2="95.202034"
       y2="83.879967"
       gradientUnits="userSpaceOnUse" />
    <linearGradient
       inkscape:collect="always"
       xlink:href="#linearGradient184"
       id="linearGradient186"
       x1="68.324524"
       y1="74.272873"
       x2="80.681885"
       y2="56.843353"
       gradientUnits="userSpaceOnUse" />
    <linearGradient
       inkscape:collect="always"
       xlink:href="#linearGradient184"
       id="linearGradient190"
       gradientUnits="userSpaceOnUse"
       x1="68.324524"
       y1="74.272873"
       x2="80.978683"
       y2="57.491642"
       gradientTransform="translate(-26.736831)" />
  </defs>
  <sodipodi:namedview
     id="base"
     pagecolor="#ffffff"
     bordercolor="#666666"
     borderopacity="1.0"
     inkscape:pageopacity="0.0"
     inkscape:pageshadow="2"
     inkscape:zoom="1.18"
     inkscape:cx="256"
     inkscape:cy="256"
     inkscape:document-units="px"
     inkscape:current-layer="layer1"
     inkscape:document-rotation="0"
     showgrid="false"
     units="px"
     inkscape:window-width="1920"
     inkscape:window-height="1011"
     inkscape:window-x="0"
     inkscape:window-y="0"
     inkscape:window-maximized="1" />
  <metadata
     id="metadata5">
    <rdf:RDF>
      <cc:Work
         rdf:about="">
        <dc:format>image/svg+xml</dc:format>
        <dc:type
           rdf:resource="http://purl.org/dc/dcmitype/StillImage" />
        <dc:title />
      </cc:Work>
    </rdf:RDF>
  </metadata>
  <g
     inkscape:label="Layer 1"
     inkscape:groupmode="layer"
     id="layer1">
    <rect
       style="fill:url(#linearGradient1033);fill-opacity:1;stroke:none;stroke-width:2.64583"
       id="rect978"
       width="135.46666"
       height="135.46666"
       x="0"
       y="0"
       ry="25.4" />
    <path
       style="fill:#f2f2f2;stroke:none;stroke-width:0.410996"
       inkscape:label="Triangle"
       d="M 42.013335,39.927395 56.54422,34.696276 47.535071,8.3655706 Z"
       id="path955"
       sodipodi:nodetypes="cccc" />
    <path
       style="fill:#f2f2f2;stroke:none;stroke-width:0.410996"
       inkscape:label="Triangle"
       d="M 93.162053,39.927395 78.631168,34.696276 87.640317,8.3655706 Z"
       id="path957"
       sodipodi:nodetypes="cccc" />
    <path
       id="rect10"
       style="fill:#225500;fill-opacity:1;stroke-width:2.69096"
       d="m 35.533804,101.62875 c 0,8.05009 12.293128,8.71851 20.343238,8.71851 H 79.58963 c 8.05011,0 20.343238,-0.66842 20.343238,-8.71851 z"
       sodipodi:nodetypes="csscc" />
    <path
       style="fill:url(#linearGradient100);stroke:none;stroke-width:0.410996;opacity:0.2"
       inkscape:label="Triangle"
       d="M 93.162053,39.927395 78.631168,34.696276 87.640317,8.3655706 Z"
       id="path84"
       sodipodi:nodetypes="cccc" />
    <path
       style="fill:url(#linearGradient92);stroke:none;stroke-width:0.410996;opacity:0.2"
       inkscape:label="Triangle"
       d="M 42.013335,39.927395 56.54422,34.696276 47.535071,8.3655706 Z"
       id="path82"
       sodipodi:nodetypes="cccc" />
    <path
       id="path865"
       style="fill:#ddff55;fill-opacity:1;stroke-width:2.69096"
       d="m 59.414578,32.276145 c -0.826877,0 -1.643353,0.04194 -2.448111,0.123173 -0.804762,0.08124 -1.597898,0.201894 -2.376596,0.360433 -0.778696,0.158537 -1.543326,0.354448 -2.292021,0.586344 -0.748695,0.231895 -1.481342,0.499589 -2.196093,0.800901 -0.714751,0.301313 -1.411382,0.636185 -2.088245,1.002971 -0.676866,0.366786 -1.334011,0.765371 -1.969048,1.193689 -0.635041,0.428321 -1.248093,0.886579 -1.837364,1.372489 -0.589271,0.48591 -1.154764,0.999803 -1.694324,1.539364 -0.539561,0.539564 -1.052888,1.105053 -1.538798,1.694325 -0.48591,0.58927 -0.944167,1.202323 -1.372488,1.837363 -0.428318,0.635037 -0.936385,1.242896 -1.193689,1.968481 -1.116698,3.149043 -1.453441,6.250542 -1.806014,9.6983 -1.088936,10.648586 -1.408648,18.045042 -1.067809,32.643903 h 64.26908 c 0,0 -0.304178,-25.049403 -0.318258,-25.581071 -0.345323,-13.038908 -1.752959,-15.090079 -1.752959,-15.090079 -0.251789,-0.566025 -0.509159,-1.129533 -0.802605,-1.671053 -0.366785,-0.676865 -0.765371,-1.333444 -1.193689,-1.968481 -0.428318,-0.63504 -0.886576,-1.248093 -1.372488,-1.837363 -0.48591,-0.589272 -0.999803,-1.154761 -1.539365,-1.694325 -0.53956,-0.539561 -1.105053,-1.053454 -1.694324,-1.539364 -0.589271,-0.48591 -1.202323,-0.944168 -1.83736,-1.372489 -0.635041,-0.428318 -1.291616,-0.826903 -1.968483,-1.193689 -0.676865,-0.366786 -1.374063,-0.701658 -2.088814,-1.002971 -0.714751,-0.301312 -1.447398,-0.569006 -2.196093,-0.800901 -0.748695,-0.231896 -1.513322,-0.427807 -2.292021,-0.586344 -0.778698,-0.158539 -1.571267,-0.279194 -2.376026,-0.360433 -0.804761,-0.08124 -1.621804,-0.123173 -2.448681,-0.123173 z"
       sodipodi:nodetypes="sssssssssssssccscsssssssssssss" />
    <path
       id="path130"
       style="fill:url(#linearGradient146);fill-opacity:1;stroke-width:2.69096"
       d="m 59.414578,32.276145 c -0.826877,0 -1.643353,0.04194 -2.448111,0.123173 -0.804762,0.08124 -1.597898,0.201894 -2.376596,0.360433 -0.778696,0.158537 -1.543326,0.354448 -2.292021,0.586344 -0.748695,0.231895 -1.481342,0.499589 -2.196093,0.800901 -0.714751,0.301313 -1.411382,0.636185 -2.088245,1.002971 -0.676866,0.366786 -1.334011,0.765371 -1.969048,1.193689 -0.635041,0.428321 -1.248093,0.886579 -1.837364,1.372489 -0.589271,0.48591 -1.154764,0.999803 -1.694324,1.539364 -0.539561,0.539564 -1.052888,1.105053 -1.538798,1.694325 -0.48591,0.58927 -0.944167,1.202323 -1.372488,1.837363 -0.428318,0.635037 -0.936385,1.242896 -1.193689,1.968481 -1.116698,3.149043 -1.453441,6.250542 -1.806014,9.6983 -1.088936,10.648586 -1.408648,18.045042 -1.067809,32.643903 h 64.26908 c 0,0 -0.304178,-25.049403 -0.318258,-25.581071 -0.345323,-13.038908 -1.752959,-15.090079 -1.752959,-15.090079 -0.251789,-0.566025 -0.509159,-1.129533 -0.802605,-1.671053 -0.366785,-0.676865 -0.765371,-1.333444 -1.193689,-1.968481 -0.428318,-0.63504 -0.886576,-1.248093 -1.372488,-1.837363 -0.48591,-0.589272 -0.999803,-1.154761 -1.539365,-1.694325 -0.53956,-0.539561 -1.105053,-1.053454 -1.694324,-1.539364 -0.589271,-0.48591 -1.202323,-0.944168 -1.83736,-1.372489 -0.635041,-0.428318 -1.291616,-0.826903 -1.968483,-1.193689 -0.676865,-0.366786 -1.374063,-0.701658 -2.088814,-1.002971 -0.714751,-0.301312 -1.447398,-0.569006 -2.196093,-0.800901 -0.748695,-0.231896 -1.513322,-0.427807 -2.292021,-0.586344 -0.778698,-0.158539 -1.571267,-0.279194 -2.376026,-0.360433 -0.804761,-0.08124 -1.621804,-0.123173 -2.448681,-0.123173 z"
       sodipodi:nodetypes="sssssssssssssccscsssssssssssss" />
    <ellipse
       style="fill:#ffffff;fill-opacity:1;stroke-width:2.90617"
       id="path872"
       cx="53.861656"
       cy="57.213787"
       rx="12.121986"
       ry="17.349253" />
    <ellipse
       style="fill:#ffffff;fill-opacity:1;stroke-width:2.90617"
       id="ellipse874"
       cx="80.598488"
       cy="57.213787"
       rx="12.121986"
       ry="17.349253" />
    <ellipse
       style="opacity:0.4;fill:url(#linearGradient186);fill-opacity:1;stroke-width:2.90617"
       id="ellipse170"
       cx="80.598488"
       cy="57.213787"
       rx="12.121986"
       ry="17.349253" />
    <ellipse
       style="fill:url(#linearGradient190);fill-opacity:1;stroke-width:2.90617;opacity:0.4"
       id="ellipse188"
       cx="53.861656"
       cy="57.213787"
       rx="12.121986"
       ry="17.349253" />
    <circle
       style="fill:#1a1a1a;fill-opacity:1;stroke-width:2.90617"
       id="path876"
       cx="53.861656"
       cy="57.213787"
       r="5.2114434" />
    <circle
       style="fill:#1a1a1a;fill-opacity:1;stroke-width:2.90617"
       id="circle878"
       cx="80.598488"
       cy="57.213787"
       r="5.2114434" />
    <path
       id="path906"
       style="fill:#ccff00;fill-opacity:1;stroke-width:12.123"
       d="M 176.40234 288.44141 C 140.13598 288.44141 110.93945 317.636 110.93945 353.90234 L 110.93945 385.25781 L 401.06055 385.25781 L 401.06055 353.90234 C 401.06055 317.636 371.86402 288.44141 335.59766 288.44141 L 176.40234 288.44141 z "
       transform="scale(0.26458333)" />
    <path
       id="path68"
       style="fill:url(#linearGradient76);fill-opacity:1;stroke-width:12.123"
       d="M 176.40234 288.44141 C 140.13598 288.44141 110.93945 317.636 110.93945 353.90234 L 110.93945 385.25781 L 401.06055 385.25781 L 401.06055 353.90234 C 401.06055 317.636 371.86402 288.44141 335.59766 288.44141 L 176.40234 288.44141 z "
       transform="scale(0.26458333)" />
    <path
       style="fill:#f2f2f2;stroke:none;stroke-width:0.410996"
       inkscape:label="Triangle"
       d="m 33.421153,101.93286 h 14.530886 l -7.265443,25.16823 z"
       id="path948" />
    <path
       style="fill:#f2f2f2;stroke:none;stroke-width:0.410996"
       inkscape:label="Triangle"
       d="m 87.51463,101.93286 h 14.53089 l -7.265448,25.16823 z"
       id="path953" />
    <circle
       style="fill:#447821;fill-opacity:1;stroke:none;stroke-width:3.26894"
       id="path959"
       cx="45.809818"
       cy="89.124718"
       r="4.8326015" />
    <circle
       style="fill:#447821;fill-opacity:1;stroke:none;stroke-width:3.26894"
       id="circle961"
       cx="89.656853"
       cy="89.124718"
       r="4.8326015" />
    <path
       style="fill:url(#linearGradient118);stroke:none;stroke-width:0.410996;opacity:0.2"
       inkscape:label="Triangle"
       d="m 87.51463,101.93286 h 14.53089 l -7.265448,25.16823 z"
       id="path78" />
    <path
       style="fill:url(#linearGradient110);stroke:none;stroke-width:0.410996;opacity:0.2"
       inkscape:label="Triangle"
       d="m 33.421153,101.93286 h 14.530886 l -7.265443,25.16823 z"
       id="path80" />
    <circle
       style="fill:url(#linearGradient158);fill-opacity:1;stroke:none;stroke-width:3.26894"
       id="circle148"
       cx="45.809818"
       cy="89.124718"
       r="4.8326015" />
    <circle
       style="fill:url(#linearGradient166);fill-opacity:1;stroke:none;stroke-width:3.26894"
       id="circle150"
       cx="89.656853"
       cy="89.124718"
       r="4.8326015" />
  </g>
</svg>
