<?xml version="1.0" encoding="UTF-8" standalone="no"?>
<svg
   xmlns:dc="http://purl.org/dc/elements/1.1/"
   xmlns:cc="http://creativecommons.org/ns#"
   xmlns:rdf="http://www.w3.org/1999/02/22-rdf-syntax-ns#"
   xmlns:svg="http://www.w3.org/2000/svg"
   xmlns="http://www.w3.org/2000/svg"
   xmlns:sodipodi="http://sodipodi.sourceforge.net/DTD/sodipodi-0.dtd"
   xmlns:inkscape="http://www.inkscape.org/namespaces/inkscape"
   width="771.83008"
   height="542.36182"
   viewBox="0 0 204.21337 143.4999"
   version="1.1"
   id="svg8"
   sodipodi:docname="QuickRunLogo.svg"
   inkscape:version="1.0.1 (3bc2e813f5, 2020-09-07)"
   inkscape:export-filename="/home/user/Documents/QuickRunLogo.png"
   inkscape:export-xdpi="96"
   inkscape:export-ydpi="96">
  <defs
     id="defs2">
    <filter
       style="color-interpolation-filters:sRGB"
       inkscape:label="Drop Shadow"
       id="filter393">
      <feFlood
         flood-opacity="0.498039"
         flood-color="rgb(0,0,0)"
         result="flood"
         id="feFlood383" />
      <feComposite
         in="flood"
         in2="SourceGraphic"
         operator="in"
         result="composite1"
         id="feComposite385" />
      <feGaussianBlur
         in="composite1"
         stdDeviation="1"
         result="blur"
         id="feGaussianBlur387" />
      <feOffset
         dx="0"
         dy="0"
         result="offset"
         id="feOffset389" />
      <feComposite
         in="SourceGraphic"
         in2="offset"
         operator="over"
         result="composite2"
         id="feComposite391" />
    </filter>
    <filter
       style="color-interpolation-filters:sRGB"
       inkscape:label="Drop Shadow"
       id="filter405">
      <feFlood
         flood-opacity="0.498039"
         flood-color="rgb(0,0,0)"
         result="flood"
         id="feFlood395" />
      <feComposite
         in="flood"
         in2="SourceGraphic"
         operator="in"
         result="composite1"
         id="feComposite397" />
      <feGaussianBlur
         in="composite1"
         stdDeviation="1"
         result="blur"
         id="feGaussianBlur399" />
      <feOffset
         dx="0"
         dy="0"
         result="offset"
         id="feOffset401" />
      <feComposite
         in="SourceGraphic"
         in2="offset"
         operator="over"
         result="composite2"
         id="feComposite403" />
    </filter>
    <filter
       style="color-interpolation-filters:sRGB"
       inkscape:label="Drop Shadow"
       id="filter417">
      <feFlood
         flood-opacity="0.498039"
         flood-color="rgb(0,0,0)"
         result="flood"
         id="feFlood407" />
      <feComposite
         in="flood"
         in2="SourceGraphic"
         operator="in"
         result="composite1"
         id="feComposite409" />
      <feGaussianBlur
         in="composite1"
         stdDeviation="1"
         result="blur"
         id="feGaussianBlur411" />
      <feOffset
         dx="0"
         dy="0"
         result="offset"
         id="feOffset413" />
      <feComposite
         in="SourceGraphic"
         in2="offset"
         operator="over"
         result="composite2"
         id="feComposite415" />
    </filter>
    <filter
       style="color-interpolation-filters:sRGB"
       inkscape:label="Drop Shadow"
       id="filter429">
      <feFlood
         flood-opacity="0.498039"
         flood-color="rgb(0,0,0)"
         result="flood"
         id="feFlood419" />
      <feComposite
         in="flood"
         in2="SourceGraphic"
         operator="in"
         result="composite1"
         id="feComposite421" />
      <feGaussianBlur
         in="composite1"
         stdDeviation="1"
         result="blur"
         id="feGaussianBlur423" />
      <feOffset
         dx="0"
         dy="0"
         result="offset"
         id="feOffset425" />
      <feComposite
         in="SourceGraphic"
         in2="offset"
         operator="over"
         result="composite2"
         id="feComposite427" />
    </filter>
    <filter
       style="color-interpolation-filters:sRGB"
       inkscape:label="Drop Shadow"
       id="filter441">
      <feFlood
         flood-opacity="0.498039"
         flood-color="rgb(0,0,0)"
         result="flood"
         id="feFlood431" />
      <feComposite
         in="flood"
         in2="SourceGraphic"
         operator="in"
         result="composite1"
         id="feComposite433" />
      <feGaussianBlur
         in="composite1"
         stdDeviation="1"
         result="blur"
         id="feGaussianBlur435" />
      <feOffset
         dx="0"
         dy="0"
         result="offset"
         id="feOffset437" />
      <feComposite
         in="SourceGraphic"
         in2="offset"
         operator="over"
         result="composite2"
         id="feComposite439" />
    </filter>
    <filter
       style="color-interpolation-filters:sRGB"
       inkscape:label="Drop Shadow"
       id="filter453">
      <feFlood
         flood-opacity="0.498039"
         flood-color="rgb(0,0,0)"
         result="flood"
         id="feFlood443" />
      <feComposite
         in="flood"
         in2="SourceGraphic"
         operator="in"
         result="composite1"
         id="feComposite445" />
      <feGaussianBlur
         in="composite1"
         stdDeviation="1"
         result="blur"
         id="feGaussianBlur447" />
      <feOffset
         dx="0"
         dy="0"
         result="offset"
         id="feOffset449" />
      <feComposite
         in="SourceGraphic"
         in2="offset"
         operator="over"
         result="composite2"
         id="feComposite451" />
    </filter>
    <filter
       style="color-interpolation-filters:sRGB"
       inkscape:label="Drop Shadow"
       id="filter465">
      <feFlood
         flood-opacity="0.498039"
         flood-color="rgb(0,0,0)"
         result="flood"
         id="feFlood455" />
      <feComposite
         in="flood"
         in2="SourceGraphic"
         operator="in"
         result="composite1"
         id="feComposite457" />
      <feGaussianBlur
         in="composite1"
         stdDeviation="1"
         result="blur"
         id="feGaussianBlur459" />
      <feOffset
         dx="0"
         dy="0"
         result="offset"
         id="feOffset461" />
      <feComposite
         in="SourceGraphic"
         in2="offset"
         operator="over"
         result="composite2"
         id="feComposite463" />
    </filter>
    <filter
       style="color-interpolation-filters:sRGB"
       inkscape:label="Drop Shadow"
       id="filter477">
      <feFlood
         flood-opacity="0.498039"
         flood-color="rgb(0,0,0)"
         result="flood"
         id="feFlood467" />
      <feComposite
         in="flood"
         in2="SourceGraphic"
         operator="in"
         result="composite1"
         id="feComposite469" />
      <feGaussianBlur
         in="composite1"
         stdDeviation="1"
         result="blur"
         id="feGaussianBlur471" />
      <feOffset
         dx="0"
         dy="0"
         result="offset"
         id="feOffset473" />
      <feComposite
         in="SourceGraphic"
         in2="offset"
         operator="over"
         result="composite2"
         id="feComposite475" />
    </filter>
  </defs>
  <sodipodi:namedview
     id="base"
     pagecolor="#ffffff"
     bordercolor="#666666"
     borderopacity="1.0"
     inkscape:pageopacity="0.0"
     inkscape:pageshadow="2"
     inkscape:zoom="1"
     inkscape:cx="393.7843"
     inkscape:cy="271.48118"
     inkscape:document-units="px"
     inkscape:current-layer="text18"
     inkscape:document-rotation="0"
     showgrid="false"
     inkscape:window-width="1920"
     inkscape:window-height="1011"
     inkscape:window-x="0"
     inkscape:window-y="0"
     inkscape:window-maximized="1"
     units="px"
     fit-margin-top="0"
     fit-margin-left="0"
     fit-margin-right="0"
     fit-margin-bottom="0" />
  <metadata
     id="metadata5">
    <rdf:RDF>
      <cc:Work
         rdf:about="">
        <dc:format>image/svg+xml</dc:format>
        <dc:type
           rdf:resource="http://purl.org/dc/dcmitype/StillImage" />
        <dc:title></dc:title>
      </cc:Work>
    </rdf:RDF>
  </metadata>
  <g
     inkscape:label="Layer 1"
     inkscape:groupmode="layer"
     id="layer1"
     transform="translate(3.9992929,-15.95946)">
    <text
       xml:space="preserve"
       style="font-size:10.5833px;line-height:1.25;font-family:'Smash Hit';-inkscape-font-specification:'Smash Hit';stroke-width:0.264583"
       x="13.063481"
       y="105.49368"
       id="text14"><tspan
         sodipodi:role="line"
         id="tspan12"
         x="13.063481"
         y="105.49368"
         style="stroke-width:0.264583" /></text>
    <g
       aria-label="Quick Run"
       id="text18"
       style="font-size:22.5778px;line-height:1;font-family:Jost;-inkscape-font-specification:Jost;fill:#ffffff;stroke-width:0.264583"
       transform="matrix(1.4411179,0,0,-1.4411179,-52.727625,216.98965)">
      <path
         d="m 46.6356,117.276 c 0,1.956 0.3823,3.718 1.1456,5.284 0.7616,1.598 1.8167,2.932 3.1624,4.002 1.3405,1.102 2.9255,1.889 4.7515,2.363 1.8163,0.508 3.7867,0.659 5.9084,0.458 2.1893,-0.209 4.1836,-0.75 5.9864,-1.623 1.793,-0.833 3.3195,-1.935 4.5829,-3.306 1.2979,-1.334 2.2778,-2.845 2.9424,-4.534 0.7023,-1.653 1.0529,-3.415 1.0529,-5.287 0,-1.872 -0.3506,-3.564 -1.0529,-5.078 -0.7038,-1.517 -1.6837,-2.811 -2.9424,-3.884 -1.2634,-1.076 -2.77,-1.88 -4.523,-2.411 -1.7623,-0.534 -3.6954,-0.744 -5.8023,-0.627 -2.1202,0.117 -4.1097,0.548 -5.9662,1.295 -1.825,0.785 -3.43,1.829 -4.8118,3.135 -1.3874,1.31 -2.4844,2.824 -3.2883,4.54 -0.7633,1.752 -1.1456,3.645 -1.1456,5.673 z m -8.0625,0.608 c 0,-2.858 0.5868,-5.555 1.7575,-8.083 1.1667,-2.483 2.8021,-4.694 4.8995,-6.629 2.1272,-1.89 4.5784,-3.4061 7.3465,-4.5505 2.7872,-1.1015 5.7983,-1.7246 9.0269,-1.8751 3.198,-0.149 6.1062,0.1896 8.7318,1.0097 2.6051,0.8485 4.8385,2.0732 6.7076,3.6719 1.8972,1.622 3.361,3.536 4.3971,5.743 1.0328,2.235 1.548,4.688 1.548,7.364 0,2.676 -0.5152,5.189 -1.548,7.545 -1.0361,2.398 -2.4999,4.515 -4.3971,6.354 -1.8691,1.881 -4.1222,3.426 -6.767,4.636 -2.6261,1.216 -5.5147,1.991 -8.6724,2.319 -3.1875,0.331 -6.1775,0.159 -8.9643,-0.522 -2.7675,-0.692 -5.2183,-1.821 -7.3451,-3.39 -2.097,-1.546 -3.7537,-3.49 -4.9635,-5.83 -1.1707,-2.315 -1.7575,-4.904 -1.7575,-7.763 z m 21.011,-4.25 18.6797,-17.1455 7.9116,-0.3749 -18.3459,16.9314 z"
         style="font-style:normal;font-variant:normal;font-weight:500;font-stretch:normal;font-size:22.5778px;font-family:Jost;-inkscape-font-specification:'Jost Medium';fill:#ffffff;stroke-width:0.264583;filter:url(#filter477)"
         id="path22" />
      <path
         d="m 96.1028,104.973 v 14.12 l -6.1548,0.518 v -14.868 c 0,-1.867 0.3358,-3.498 1.0062,-4.8906 0.7061,-1.392 1.7254,-2.4922 3.0548,-3.3005 1.324,-0.7713 2.9166,-1.1996 4.7736,-1.2868 1.7384,-0.0817 3.2154,0.182 4.4344,0.7889 1.251,0.6361 2.265,1.596 3.046,2.8794 v -3.5236 l 5.693,-0.272 V 117.76 l -5.693,0.479 v -13.896 c 0,-1.026 -0.23,-1.906 -0.692,-2.64 -0.462,-0.736 -1.103,-1.297 -1.925,-1.683 -0.823,-0.3873 -1.792,-0.5513 -2.909,-0.4912 -1.048,0.0565 -1.9181,0.3042 -2.6086,0.7442 -0.692,0.44 -1.2028,1.056 -1.5317,1.847 -0.3292,0.826 -0.4939,1.777 -0.4939,2.853 z"
         style="font-style:normal;font-variant:normal;font-weight:500;font-stretch:normal;font-size:22.5778px;font-family:Jost;-inkscape-font-specification:'Jost Medium';fill:#ffffff;stroke-width:0.264583;filter:url(#filter465)"
         id="path24" />
      <path
         d="m 118.876,126.078 c 0,-0.908 0.341,-1.702 1.02,-2.383 0.678,-0.678 1.49,-1.061 2.434,-1.149 0.975,-0.091 1.779,0.139 2.415,0.69 0.667,0.546 1,1.267 1,2.165 0,0.898 -0.333,1.685 -1,2.363 -0.636,0.675 -1.44,1.064 -2.415,1.165 -0.944,0.098 -1.756,-0.125 -2.434,-0.67 -0.679,-0.546 -1.02,-1.273 -1.02,-2.181 z m 0.766,-8.964 V 94.7706 l 5.353,-0.2558 v 22.1492 z"
         style="font-style:normal;font-variant:normal;font-weight:500;font-stretch:normal;font-size:22.5778px;font-family:Jost;-inkscape-font-specification:'Jost Medium';fill:#ffffff;stroke-width:0.264583;filter:url(#filter453)"
         id="path26" />
      <path
         d="m 135.862,104.873 c 0,1.355 0.306,2.532 0.916,3.528 0.61,0.994 1.425,1.75 2.446,2.269 1.049,0.515 2.204,0.723 3.466,0.625 1.005,-0.078 1.976,-0.308 2.912,-0.691 0.933,-0.381 1.755,-0.877 2.467,-1.486 0.741,-0.58 1.279,-1.236 1.618,-1.969 v 5.544 c -0.739,0.769 -1.742,1.423 -3.012,1.962 -1.276,0.541 -2.682,0.878 -4.221,1.008 -2.245,0.191 -4.283,-0.123 -6.109,-0.946 -1.806,-0.799 -3.248,-2.013 -4.323,-3.642 -1.045,-1.637 -1.569,-3.587 -1.569,-5.846 0,-2.227 0.524,-4.246 1.569,-6.0525 1.075,-1.7706 2.517,-3.1903 4.323,-4.259 1.826,-1.0323 3.864,-1.5992 6.109,-1.7047 1.539,-0.0723 2.945,0.0633 4.221,0.4053 1.27,0.3715 2.273,0.924 3.012,1.6573 v 5.4976 c -0.339,-0.657 -0.862,-1.2431 -1.572,-1.7577 -0.711,-0.5158 -1.533,-0.9029 -2.466,-1.1611 -0.936,-0.259 -1.922,-0.3608 -2.959,-0.3044 -1.262,0.0685 -2.417,0.413 -3.466,1.0348 -1.021,0.6535 -1.836,1.5174 -2.446,2.5914 -0.61,1.108 -0.916,2.341 -0.916,3.697 z"
         style="font-style:normal;font-variant:normal;font-weight:500;font-stretch:normal;font-size:22.5778px;font-family:Jost;-inkscape-font-specification:'Jost Medium';fill:#ffffff;stroke-width:0.264583;filter:url(#filter441)"
         id="path28" />
      <path
         d="M 154.94,128.797 V 93.0839 l 4.759,-0.2274 v 35.4205 z m 12.188,-15.676 -8.723,-7.914 9.632,-12.7489 5.61,-0.2681 -9.397,12.613 8.548,7.841 z"
         style="font-style:normal;font-variant:normal;font-weight:500;font-stretch:normal;font-size:22.5778px;font-family:Jost;-inkscape-font-specification:'Jost Medium';fill:#ffffff;stroke-width:0.264583;filter:url(#filter429)"
         id="path30" />
      <path
         d="M 50.4396,62.0903 64.1562,44.47 l 8.5482,0.2663 -14.35,17.3919 z m -9.266,19.9999 v -38.336 l 7.5594,0.2354 V 81.908 Z m 4.5043,-5.7128 8.8978,-0.1421 c 1.6984,-0.0272 3.1621,-0.3 4.3941,-0.8173 1.2276,-0.4799 2.186,-1.1849 2.8777,-2.115 0.6902,-0.9282 1.0348,-2.0636 1.0348,-3.4075 0,-1.3087 -0.3446,-2.4394 -1.0348,-3.3936 -0.6917,-0.9208 -1.6501,-1.6307 -2.8777,-2.1296 -1.232,-0.4652 -2.6957,-0.7005 -4.3941,-0.7047 l -8.8978,-0.0222 v -5.3322 l 9.2092,0.0942 c 3.1797,0.0325 5.902,0.5394 8.1775,1.5157 2.3004,0.97 4.0655,2.3173 5.3035,4.042 1.2333,1.7183 1.8483,3.712 1.8483,5.9859 0,2.3088 -0.615,4.3285 -1.8483,6.0639 -1.238,1.7419 -3.0031,3.1137 -5.3035,4.1156 -2.2755,1.008 -4.9978,1.5525 -8.1775,1.6292 l -9.2092,0.2219 z"
         style="font-style:normal;font-variant:normal;font-weight:500;font-stretch:normal;font-size:22.5778px;font-family:Jost;-inkscape-font-specification:'Jost Medium';fill:#ffffff;stroke-width:0.264583;filter:url(#filter417)"
         id="path32" />
      <path
         d="M 83.5023,54.3291 V 68.728 l -6.4011,0.033 V 53.5975 c 0,-1.9041 0.3492,-3.5404 1.0465,-4.9068 0.7345,-1.3624 1.7947,-2.4019 3.1773,-3.1183 1.3769,-0.6792 3.0328,-0.9867 4.9636,-0.925 1.8068,0.0577 3.3421,0.4463 4.6098,1.164 1.2998,0.7498 2.3543,1.8106 3.166,3.1822 v -3.592 l 5.9141,0.1842 V 68.643 l -5.9141,0.0305 V 54.508 c 0,-1.0455 -0.2396,-1.961 -0.7193,-2.7472 -0.4805,-0.7873 -1.1469,-1.4111 -2.0004,-1.8714 -0.8559,-0.4615 -1.8634,-0.7072 -3.0242,-0.7363 -1.0896,-0.0273 -1.9941,0.1548 -2.712,0.5471 -0.7195,0.3932 -1.2507,0.9799 -1.5926,1.7601 -0.3423,0.8152 -0.5136,1.7717 -0.5136,2.8688 z"
         style="font-style:normal;font-variant:normal;font-weight:500;font-stretch:normal;font-size:22.5778px;font-family:Jost;-inkscape-font-specification:'Jost Medium';fill:#ffffff;stroke-width:0.264583;filter:url(#filter405)"
         id="path34" />
      <path
         d="M 122.683,59.826 V 46.293 l 5.549,0.1728 V 60.451 c 0,1.788 -0.314,3.3038 -0.943,4.5493 -0.596,1.2801 -1.494,2.2592 -2.695,2.9375 -1.172,0.7129 -2.635,1.0757 -4.392,1.0861 -1.598,0.0095 -2.999,-0.3072 -4.199,-0.9522 -1.205,-0.6475 -2.19,-1.6412 -2.953,-2.9817 v 3.4855 l -5.672,0.0293 V 45.8163 l 5.672,0.1767 v 13.7459 c 0,1.0146 0.226,1.8996 0.676,2.6542 0.45,0.7536 1.072,1.3432 1.864,1.769 0.825,0.4248 1.75,0.6372 2.775,0.6382 0.988,9e-4 1.803,-0.1925 2.446,-0.5795 0.642,-0.3863 1.115,-0.9497 1.418,-1.6903 0.303,-0.7076 0.454,-1.6089 0.454,-2.7045 z"
         style="font-style:normal;font-variant:normal;font-weight:500;font-stretch:normal;font-size:22.5778px;font-family:Jost;-inkscape-font-specification:'Jost Medium';fill:#ffffff;stroke-width:0.264583;filter:url(#filter393)"
         id="path36" />
    </g>
  </g>
</svg>
