<?xml version="1.0" encoding="UTF-8" standalone="no"?>
<svg
   xmlns:dc="http://purl.org/dc/elements/1.1/"
   xmlns:cc="http://creativecommons.org/ns#"
   xmlns:rdf="http://www.w3.org/1999/02/22-rdf-syntax-ns#"
   xmlns:svg="http://www.w3.org/2000/svg"
   xmlns="http://www.w3.org/2000/svg"
   xmlns:xlink="http://www.w3.org/1999/xlink"
   xmlns:sodipodi="http://sodipodi.sourceforge.net/DTD/sodipodi-0.dtd"
   xmlns:inkscape="http://www.inkscape.org/namespaces/inkscape"
   width="2560"
   height="1440"
   viewBox="0 0 677.33332 381.00001"
   version="1.1"
   id="svg35"
   inkscape:version="1.0.2 (e86c870879, 2021-01-15)"
   sodipodi:docname="Splash6.svg"
   inkscape:export-filename="/home/user/splash.png"
   inkscape:export-xdpi="48"
   inkscape:export-ydpi="48">
  <defs
     id="defs29">
    <linearGradient
       inkscape:collect="always"
       id="linearGradient130">
      <stop
         style="stop-color:#5a2ca0;stop-opacity:1"
         offset="0"
         id="stop126" />
      <stop
         style="stop-color:#8d5fd3;stop-opacity:1"
         offset="1"
         id="stop128" />
    </linearGradient>
    <linearGradient
       inkscape:collect="always"
       id="linearGradient122">
      <stop
         style="stop-color:#d4aa00;stop-opacity:1"
         offset="0"
         id="stop118" />
      <stop
         style="stop-color:#ffdd55;stop-opacity:1"
         offset="1"
         id="stop120" />
    </linearGradient>
    <linearGradient
       inkscape:collect="always"
       id="linearGradient114">
      <stop
         style="stop-color:#2c5aa0;stop-opacity:1"
         offset="0"
         id="stop110" />
      <stop
         style="stop-color:#5f8dd3;stop-opacity:1"
         offset="1"
         id="stop112" />
    </linearGradient>
    <linearGradient
       inkscape:collect="always"
       id="linearGradient106">
      <stop
         style="stop-color:#89a02c;stop-opacity:1"
         offset="0"
         id="stop102" />
      <stop
         style="stop-color:#bcd35f;stop-opacity:1"
         offset="1"
         id="stop104" />
    </linearGradient>
    <linearGradient
       inkscape:collect="always"
       id="linearGradient98">
      <stop
         style="stop-color:#2ca05a;stop-opacity:1"
         offset="0"
         id="stop94" />
      <stop
         style="stop-color:#5fd38d;stop-opacity:1"
         offset="1"
         id="stop96" />
    </linearGradient>
    <linearGradient
       inkscape:collect="always"
       id="linearGradient90">
      <stop
         style="stop-color:#a02c2c;stop-opacity:1"
         offset="0"
         id="stop86" />
      <stop
         style="stop-color:#d35f5f;stop-opacity:1"
         offset="1"
         id="stop88" />
    </linearGradient>
    <linearGradient
       inkscape:collect="always"
       id="linearGradient82">
      <stop
         style="stop-color:#a05a2c;stop-opacity:1"
         offset="0"
         id="stop78" />
      <stop
         style="stop-color:#d38d5f;stop-opacity:1"
         offset="1"
         id="stop80" />
    </linearGradient>
    <linearGradient
       inkscape:collect="always"
       id="linearGradient74">
      <stop
         style="stop-color:#2c89a0;stop-opacity:1"
         offset="0"
         id="stop70" />
      <stop
         style="stop-color:#5fbcd3;stop-opacity:1"
         offset="1"
         id="stop72" />
    </linearGradient>
    <linearGradient
       inkscape:collect="always"
       id="linearGradient398">
      <stop
         style="stop-color:#2ca05a;stop-opacity:1"
         offset="0"
         id="stop394" />
      <stop
         style="stop-color:#5fd38d;stop-opacity:1"
         offset="1"
         id="stop396" />
    </linearGradient>
    <inkscape:path-effect
       effect="perspective-envelope"
       up_left_point="250,50"
       up_right_point="429.67283,59.463434"
       down_left_point="250,190"
       down_right_point="430,170"
       id="path-effect102"
       is_visible="true"
       lpeversion="1"
       deform_type="perspective"
       horizontal_mirror="false"
       vertical_mirror="false"
       overflow_perspective="false" />
    <linearGradient
       inkscape:collect="always"
       id="linearGradient1552">
      <stop
         style="stop-color:#f9f9f9;stop-opacity:1"
         offset="0"
         id="stop1548" />
      <stop
         style="stop-color:#e6e6e6;stop-opacity:1"
         offset="1"
         id="stop1550" />
    </linearGradient>
    <linearGradient
       inkscape:collect="always"
       xlink:href="#linearGradient1552"
       id="linearGradient1554"
       x1="1.1283637e-05"
       y1="106.49999"
       x2="677.33332"
       y2="106.49999"
       gradientUnits="userSpaceOnUse"
       gradientTransform="translate(1.1283637e-5)" />
    <linearGradient
       inkscape:collect="always"
       xlink:href="#linearGradient398"
       id="linearGradient400"
       x1="619.69922"
       y1="411.48853"
       x2="1940.3008"
       y2="411.48853"
       gradientUnits="userSpaceOnUse"
       gradientTransform="matrix(0.26458333,0,0,0.26458333,0,-70.770763)" />
    <linearGradient
       inkscape:collect="always"
       xlink:href="#linearGradient74"
       id="linearGradient76"
       x1="214.01639"
       y1="106.49999"
       x2="247.48089"
       y2="106.49999"
       gradientUnits="userSpaceOnUse"
       gradientTransform="matrix(2.4222087,0,0,2.4222087,-481.65468,-186.60705)" />
    <linearGradient
       inkscape:collect="always"
       xlink:href="#linearGradient82"
       id="linearGradient84"
       x1="253.19581"
       y1="116.34249"
       x2="285.51731"
       y2="116.34249"
       gradientUnits="userSpaceOnUse"
       gradientTransform="matrix(2.4222087,0,0,2.4222087,-481.65468,-186.60705)" />
    <linearGradient
       inkscape:collect="always"
       xlink:href="#linearGradient90"
       id="linearGradient92"
       x1="289.4543"
       y1="116.34249"
       x2="315.8068"
       y2="116.34249"
       gradientUnits="userSpaceOnUse"
       gradientTransform="matrix(2.4222087,0,0,2.4222087,-481.65468,-186.60705)" />
    <linearGradient
       inkscape:collect="always"
       xlink:href="#linearGradient98"
       id="linearGradient100"
       x1="320.88669"
       y1="116.34249"
       x2="353.20819"
       y2="116.34249"
       gradientUnits="userSpaceOnUse"
       gradientTransform="matrix(2.4222087,0,0,2.4222087,-481.65468,-186.60705)" />
    <linearGradient
       inkscape:collect="always"
       xlink:href="#linearGradient106"
       id="linearGradient108"
       x1="358.92319"
       y1="115.99324"
       x2="388.00619"
       y2="115.99324"
       gradientUnits="userSpaceOnUse"
       gradientTransform="matrix(2.4222087,0,0,2.4222087,-481.65468,-186.60705)" />
    <linearGradient
       inkscape:collect="always"
       xlink:href="#linearGradient114"
       id="linearGradient116"
       x1="392.07011"
       y1="111.26249"
       x2="411.62811"
       y2="111.26249"
       gradientUnits="userSpaceOnUse"
       gradientTransform="matrix(2.4222087,0,0,2.4222087,-481.65468,-186.60705)" />
    <linearGradient
       inkscape:collect="always"
       xlink:href="#linearGradient122"
       id="linearGradient124"
       x1="415.12054"
       y1="108.27799"
       x2="426.29654"
       y2="108.27799"
       gradientUnits="userSpaceOnUse"
       gradientTransform="matrix(2.4222087,0,0,2.4222087,-481.65468,-186.60705)" />
    <linearGradient
       inkscape:collect="always"
       xlink:href="#linearGradient130"
       id="linearGradient132"
       x1="429.53494"
       y1="116.34249"
       x2="463.31694"
       y2="116.34249"
       gradientUnits="userSpaceOnUse"
       gradientTransform="matrix(2.4222087,0,0,2.4222087,-481.65468,-186.60705)" />
  </defs>
  <sodipodi:namedview
     id="base"
     pagecolor="#ffffff"
     bordercolor="#666666"
     borderopacity="1.0"
     inkscape:pageopacity="0.0"
     inkscape:pageshadow="2"
     inkscape:zoom="0.56527778"
     inkscape:cx="1280"
     inkscape:cy="720"
     inkscape:document-units="px"
     inkscape:current-layer="layer1"
     showgrid="false"
     units="px"
     inkscape:window-width="1920"
     inkscape:window-height="1011"
     inkscape:window-x="0"
     inkscape:window-y="0"
     inkscape:window-maximized="1"
     inkscape:document-rotation="0" />
  <metadata
     id="metadata32">
    <rdf:RDF>
      <cc:Work
         rdf:about="">
        <dc:format>image/svg+xml</dc:format>
        <dc:type
           rdf:resource="http://purl.org/dc/dcmitype/StillImage" />
        <dc:title />
      </cc:Work>
    </rdf:RDF>
  </metadata>
  <g
     inkscape:label="Layer 1"
     inkscape:groupmode="layer"
     id="layer1"
     transform="translate(0,84.000009)">
    <rect
       style="opacity:1;vector-effect:none;fill:url(#linearGradient1554);fill-opacity:1;stroke:none;stroke-width:1.03327;stroke-linecap:butt;stroke-linejoin:miter;stroke-miterlimit:4;stroke-dasharray:none;stroke-dashoffset:0;stroke-opacity:1"
       id="rect842"
       width="677.33331"
       height="381"
       x="1.1283637e-05"
       y="-84.000008" />
    <path
       d="M 94.570339,10.603117 V 130.5751 H 117.79569 V 10.603117 Z M 36.737684,95.198748 q 0,11.843392 4.768118,20.149142 4.768118,8.30575 12.30482,12.61244 7.690513,4.15288 16.457697,4.15288 6.767651,0 12.30482,-2.46097 5.537169,-2.61477 9.690046,-7.38289 4.306687,-4.76812 6.460031,-11.53577 2.307154,-6.92146 2.307154,-15.534832 0,-8.61338 -2.307154,-15.38103 -2.153344,-6.92146 -6.306221,-11.68958 -4.152876,-4.768117 -9.843856,-7.229081 -5.537169,-2.614774 -12.30482,-2.614774 -8.767184,0 -16.457697,4.306687 -7.536702,4.152878 -12.30482,12.458628 -4.768118,8.15195 -4.768118,20.14915 z m 24.45583,0 q 0,-5.53717 2.307154,-9.53624 2.307154,-4.15288 6.15241,-6.30622 3.845256,-2.30715 8.459564,-2.30715 2.922395,0 5.84479,1.23048 2.922394,1.23048 5.229548,3.53763 2.460964,2.30716 3.845256,5.69098 1.538103,3.38383 1.538103,7.69052 0,4.30668 -1.538103,7.690512 -1.384292,3.23001 -3.845256,5.69098 -2.307154,2.30715 -5.229548,3.53763 -2.922395,1.23049 -5.69098,1.23049 -4.768118,0 -8.613374,-2.15335 -3.845256,-2.30715 -6.15241,-6.30622 -2.307154,-4.15288 -2.307154,-9.690042 z"
       style="font-style:normal;font-variant:normal;font-weight:bold;font-stretch:normal;font-size:63.5px;line-height:1.25;font-family:Jost;-inkscape-font-specification:'Jost Bold';fill:url(#linearGradient76);stroke-width:0.640875"
       id="path45" />
    <path
       d="m 171.9367,132.11321 q 13.5353,0 22.91773,-5.22955 9.38243,-5.22955 15.0734,-15.68865 l -20.91819,-5.07574 q -2.46096,4.61431 -6.92146,6.92146 -4.4605,2.30716 -10.61291,2.30716 -5.22955,0 -9.0748,-2.46097 -3.69145,-2.46096 -5.53717,-6.92146 -1.84573,-4.6143 -1.69192,-11.074332 0,-5.38336 0.92287,-9.22862 1.07667,-3.99907 3.0762,-6.61384 1.99953,-2.61478 4.92193,-3.84526 3.0762,-1.38429 7.07527,-1.38429 3.99907,0 7.07527,1.84572 3.23002,1.84573 4.76812,5.22955 1.5381,3.23002 1.5381,7.99814 0,1.07667 -0.46143,2.61477 -0.46143,1.38429 -1.23048,2.76858 l 5.53717,-7.07527 h -43.68211 v 12.920062 h 64.75411 q 0.15381,-1.230482 0.15381,-2.768582 0,-1.69191 0,-3.23002 0,-11.38195 -4.46049,-19.38009 -4.4605,-7.99813 -12.92006,-12.151008 -8.45957,-4.306687 -20.76439,-4.306687 -9.22861,0 -16.61151,2.614774 -7.38289,2.460964 -12.61244,7.229081 -5.22955,4.76812 -7.99813,11.68958 -2.61477,6.76765 -2.61477,15.38103 0,11.228142 4.92192,19.533902 4.92193,8.30575 13.84293,12.92006 9.0748,4.4605 21.53343,4.4605 z"
       style="font-style:normal;font-variant:normal;font-weight:bold;font-stretch:normal;font-size:63.5px;line-height:1.25;font-family:Jost;-inkscape-font-specification:'Jost Bold';fill:url(#linearGradient84);stroke-width:0.640875"
       id="path47" />
    <path
       d="m 243.61226,95.198748 q 0,-5.22955 2.46096,-9.22862 2.46096,-4.15288 6.76765,-6.61384 4.30669,-2.46096 9.53624,-2.46096 3.84525,0 7.84432,1.23048 3.99907,1.07667 7.38289,3.38382 3.53764,2.30716 5.69098,5.69098 V 64.436693 q -3.69145,-2.768584 -9.38242,-4.460497 -5.53717,-1.691913 -13.53531,-1.691913 -11.84339,0 -21.072,4.614308 -9.22862,4.614307 -14.61198,12.920057 -5.22954,8.15195 -5.22954,19.3801 0,11.074332 5.22954,19.380092 5.38336,8.30575 14.61198,12.92006 9.22861,4.61431 21.072,4.61431 7.99814,0 13.53531,-1.69192 5.69097,-1.84572 9.38242,-4.76811 v -22.61011 q -2.15334,3.38382 -5.53717,5.69098 -3.23001,2.30715 -7.22908,3.53763 -3.84526,1.07668 -8.15194,1.07668 -5.22955,0 -9.53624,-2.15335 -4.30669,-2.30715 -6.76765,-6.30622 -2.46096,-3.99907 -2.46096,-9.690042 z"
       style="font-style:normal;font-variant:normal;font-weight:bold;font-stretch:normal;font-size:63.5px;line-height:1.25;font-family:Jost;-inkscape-font-specification:'Jost Bold';fill:url(#linearGradient92);stroke-width:0.640875"
       id="path49" />
    <path
       d="m 335.89814,132.11321 q 13.5353,0 22.91773,-5.22955 9.38242,-5.22955 15.0734,-15.68865 l -20.91819,-5.07574 q -2.46096,4.61431 -6.92146,6.92146 -4.4605,2.30716 -10.61291,2.30716 -5.22955,0 -9.0748,-2.46097 -3.69145,-2.46096 -5.53717,-6.92146 -1.84573,-4.6143 -1.69192,-11.074332 0,-5.38336 0.92286,-9.22862 1.07668,-3.99907 3.07621,-6.61384 1.99953,-2.61478 4.92193,-3.84526 3.0762,-1.38429 7.07527,-1.38429 3.99907,0 7.07527,1.84572 3.23002,1.84573 4.76812,5.22955 1.5381,3.23002 1.5381,7.99814 0,1.07667 -0.46143,2.61477 -0.46143,1.38429 -1.23048,2.76858 l 5.53717,-7.07527 h -43.68211 v 12.920062 h 64.75411 q 0.15381,-1.230482 0.15381,-2.768582 0,-1.69191 0,-3.23002 0,-11.38195 -4.46049,-19.38009 -4.4605,-7.99813 -12.92007,-12.151008 -8.45956,-4.306687 -20.76438,-4.306687 -9.22861,0 -16.61151,2.614774 -7.38289,2.460964 -12.61244,7.229081 -5.22955,4.76812 -7.99813,11.68958 -2.61478,6.76765 -2.61478,15.38103 0,11.228142 4.92193,19.533902 4.92193,8.30575 13.84293,12.92006 9.0748,4.4605 21.53343,4.4605 z"
       style="font-style:normal;font-variant:normal;font-weight:bold;font-stretch:normal;font-size:63.5px;line-height:1.25;font-family:Jost;-inkscape-font-specification:'Jost Bold';fill:url(#linearGradient100);stroke-width:0.640875"
       id="path51" />
    <path
       d="M 433.87527,87.508228 V 130.5751 h 24.30202 V 85.047268 q 0,-8.45956 -2.76858,-14.45816 -2.61478,-5.998605 -8.30576,-9.22862 -5.53717,-3.230015 -14.30435,-3.230015 -7.69051,0 -13.07387,3.230015 -5.38336,3.230015 -8.45957,9.0748 V 59.822385 H 387.7322 V 130.5751 h 23.53296 V 87.508228 q 0,-3.99906 1.53811,-6.92146 1.5381,-3.0762 4.30668,-4.4605 2.76859,-1.5381 6.46004,-1.5381 3.84525,0 5.99859,1.5381 2.30716,1.3843 3.23002,4.30669 1.07667,2.9224 1.07667,7.07527 z"
       style="font-style:normal;font-variant:normal;font-weight:bold;font-stretch:normal;font-size:63.5px;line-height:1.25;font-family:Jost;-inkscape-font-specification:'Jost Bold';fill:url(#linearGradient108);stroke-width:0.640875"
       id="path53" />
    <path
       d="m 468.02095,59.822385 v 19.226283 h 47.37356 V 59.822385 Z M 480.47958,35.212757 V 130.5751 h 22.4563 V 35.212757 Z"
       style="font-style:normal;font-variant:normal;font-weight:bold;font-stretch:normal;font-size:63.5px;line-height:1.25;font-family:Jost;-inkscape-font-specification:'Jost Bold';fill:url(#linearGradient116);stroke-width:0.640875"
       id="path55" />
    <path
       d="m 523.85391,33.367034 q 0,5.537169 3.84525,8.920995 3.84526,3.383825 9.69005,3.383825 5.69098,0 9.53623,-3.383825 3.99907,-3.383826 3.99907,-8.920995 0,-5.537169 -3.99907,-9.074805 -3.84525,-3.537636 -9.53623,-3.537636 -5.84479,0 -9.69005,3.537636 -3.84525,3.537636 -3.84525,9.074805 z m 2.15334,26.455351 V 130.5751 h 22.61011 V 59.822385 Z"
       style="font-style:normal;font-variant:normal;font-weight:bold;font-stretch:normal;font-size:63.5px;line-height:1.25;font-family:Jost;-inkscape-font-specification:'Jost Bold';fill:url(#linearGradient124);stroke-width:0.640875"
       id="path57" />
    <path
       d="M 613.21742,59.822385 600.14355,78.433428 587.22349,59.822385 h -26.9168 l 27.53204,34.453493 -29.07014,36.299222 h 26.9168 l 14.45816,-20.45676 14.61197,20.45676 h 25.84013 l -28.60871,-36.299222 27.0706,-34.453493 z"
       style="font-style:normal;font-variant:normal;font-weight:bold;font-stretch:normal;font-size:63.5px;line-height:1.25;font-family:Jost;-inkscape-font-specification:'Jost Bold';fill:url(#linearGradient132);stroke-width:0.640875"
       id="path59" />
    <text
       xml:space="preserve"
       style="font-size:50.8px;line-height:1.25;font-family:Rubik;-inkscape-font-specification:Rubik;text-align:center;text-anchor:middle;stroke-width:0.264583"
       x="339.42865"
       y="200.36487"
       id="text138"><tspan
         sodipodi:role="line"
         id="tspan136"
         x="339.42865"
         y="200.36487"
         style="font-style:normal;font-variant:normal;font-weight:bold;font-stretch:normal;font-size:50.8px;font-family:Jost;-inkscape-font-specification:'Jost Bold';text-align:center;text-anchor:middle;stroke-width:0.264583">SOFTWARE</tspan></text>
  </g>
</svg>
