<?xml version="1.0" encoding="UTF-8" standalone="no"?>
<svg
   xmlns:dc="http://purl.org/dc/elements/1.1/"
   xmlns:cc="http://creativecommons.org/ns#"
   xmlns:rdf="http://www.w3.org/1999/02/22-rdf-syntax-ns#"
   xmlns:svg="http://www.w3.org/2000/svg"
   xmlns="http://www.w3.org/2000/svg"
   xmlns:xlink="http://www.w3.org/1999/xlink"
   xmlns:sodipodi="http://sodipodi.sourceforge.net/DTD/sodipodi-0.dtd"
   xmlns:inkscape="http://www.inkscape.org/namespaces/inkscape"
   width="2560"
   height="1440"
   viewBox="0 0 677.33332 381.00001"
   version="1.1"
   id="svg35"
   inkscape:version="1.0.2 (e86c870879, 2021-01-15)"
   sodipodi:docname="Splash5.svg"
   inkscape:export-filename="/home/user/banner-v4.png"
   inkscape:export-xdpi="96"
   inkscape:export-ydpi="96">
  <defs
     id="defs29">
    <linearGradient
       inkscape:collect="always"
       id="linearGradient406">
      <stop
         style="stop-color:#2c89a0;stop-opacity:1"
         offset="0"
         id="stop402" />
      <stop
         style="stop-color:#5fbcd3;stop-opacity:1"
         offset="1"
         id="stop404" />
    </linearGradient>
    <linearGradient
       inkscape:collect="always"
       id="linearGradient398">
      <stop
         style="stop-color:#2ca05a;stop-opacity:1"
         offset="0"
         id="stop394" />
      <stop
         style="stop-color:#5fd38d;stop-opacity:1"
         offset="1"
         id="stop396" />
    </linearGradient>
    <inkscape:path-effect
       effect="perspective-envelope"
       up_left_point="250,50"
       up_right_point="429.67283,59.463434"
       down_left_point="250,190"
       down_right_point="430,170"
       id="path-effect102"
       is_visible="true"
       lpeversion="1"
       deform_type="perspective"
       horizontal_mirror="false"
       vertical_mirror="false"
       overflow_perspective="false" />
    <linearGradient
       inkscape:collect="always"
       id="linearGradient1552">
      <stop
         style="stop-color:#ffffff;stop-opacity:1;"
         offset="0"
         id="stop1548" />
      <stop
         style="stop-color:#ececec;stop-opacity:1"
         offset="1"
         id="stop1550" />
    </linearGradient>
    <linearGradient
       inkscape:collect="always"
       xlink:href="#linearGradient1552"
       id="linearGradient1554"
       x1="1.7763568e-15"
       y1="-84.000008"
       x2="677.33331"
       y2="297"
       gradientUnits="userSpaceOnUse" />
    <linearGradient
       inkscape:collect="always"
       xlink:href="#linearGradient398"
       id="linearGradient400"
       x1="619.69922"
       y1="411.48853"
       x2="1940.3008"
       y2="411.48853"
       gradientUnits="userSpaceOnUse"
       gradientTransform="matrix(0.26458333,0,0,0.26458333,0,-70.770763)" />
    <linearGradient
       inkscape:collect="always"
       xlink:href="#linearGradient406"
       id="linearGradient408"
       x1="652.72461"
       y1="1018.4316"
       x2="1913.0804"
       y2="1018.4316"
       gradientUnits="userSpaceOnUse"
       gradientTransform="matrix(0.26458333,0,0,0.26458333,0,-97.229104)" />
  </defs>
  <sodipodi:namedview
     id="base"
     pagecolor="#ffffff"
     bordercolor="#666666"
     borderopacity="1.0"
     inkscape:pageopacity="0.0"
     inkscape:pageshadow="2"
     inkscape:zoom="0.41513309"
     inkscape:cx="1280"
     inkscape:cy="720.00001"
     inkscape:document-units="px"
     inkscape:current-layer="layer1"
     showgrid="false"
     units="px"
     inkscape:window-width="1920"
     inkscape:window-height="1011"
     inkscape:window-x="0"
     inkscape:window-y="0"
     inkscape:window-maximized="1"
     inkscape:document-rotation="0" />
  <metadata
     id="metadata32">
    <rdf:RDF>
      <cc:Work
         rdf:about="">
        <dc:format>image/svg+xml</dc:format>
        <dc:type
           rdf:resource="http://purl.org/dc/dcmitype/StillImage" />
        <dc:title />
      </cc:Work>
    </rdf:RDF>
  </metadata>
  <g
     inkscape:label="Layer 1"
     inkscape:groupmode="layer"
     id="layer1"
     transform="translate(0,84.000009)">
    <rect
       style="opacity:1;vector-effect:none;fill:url(#linearGradient1554);fill-opacity:1;stroke:none;stroke-width:1.03327179;stroke-linecap:butt;stroke-linejoin:miter;stroke-miterlimit:4;stroke-dasharray:none;stroke-dashoffset:0;stroke-opacity:1"
       id="rect842"
       width="677.33331"
       height="381"
       x="1.7763568e-15"
       y="-84.000008"
       ry="1.4347875" />
    <path
       id="path24"
       style="font-style:normal;font-variant:normal;font-weight:500;font-stretch:normal;font-size:61.7361px;line-height:0.5;font-family:Jost;-inkscape-font-specification:'Jost Medium';text-align:center;letter-spacing:0px;word-spacing:0px;text-anchor:middle;fill:url(#linearGradient400);fill-opacity:1;stroke:none;stroke-width:0.514345"
       d="m 219.6362,-12.56243 0.0238,50.685794 c -0.69193,-1.030115 -1.44604,-1.997122 -2.26498,-2.898531 -2.46077,-2.708582 -5.40414,-4.794822 -8.83512,-6.257499 -3.44555,-1.554951 -7.24266,-2.39318 -11.3962,-2.509406 -5.83125,-0.16318 -11.26182,0.94775 -16.28428,3.344497 -5.05356,2.323944 -9.13923,5.827001 -12.24163,10.51202 -3.11432,4.614809 -4.67568,10.284293 -4.67568,16.994827 0,6.622987 1.56188,12.321609 4.67723,17.082162 3.10394,4.743095 7.19141,8.365154 12.24783,10.86807 5.02571,2.400567 10.45982,3.565165 16.2941,3.505213 4.15567,-0.04277 7.95416,-0.771202 11.40033,-2.180746 3.43147,-1.489324 6.3747,-3.568097 8.83409,-6.235277 0.81853,-0.887695 1.57163,-1.837645 2.26291,-2.846856 l 0.005,9.750827 15.26005,-0.144695 -0.0594,-98.867348 z m 276.06842,31.484381 0.0476,16.950904 -7.50187,-0.20412 0.0279,10.123929 7.50239,0.147278 0.10854,38.694277 10.28877,-0.09767 -0.1111,-38.394555 7.30446,0.143145 -0.0294,-9.934279 -7.30396,-0.198437 -0.0486,-16.82016 z m -217.07046,9.849012 c -4.10935,0.03858 -7.86892,0.624768 -11.27323,1.762167 -3.91025,1.306444 -7.30245,3.256378 -10.16991,5.852356 -2.788,2.524058 -4.95274,5.654717 -6.4885,9.390641 -1.53892,3.65972 -2.30801,7.755054 -2.30477,12.280903 0.004,6.035005 1.3248,11.318139 3.9548,15.83831 2.62144,4.50547 6.31084,7.989239 11.05307,10.451042 4.71387,2.447067 10.19077,3.633247 16.41451,3.569292 6.95314,-0.07154 12.85565,-1.395862 17.73121,-3.960482 4.92913,-2.62972 8.89804,-6.449467 11.92125,-11.457183 l -11.93932,-4.504118 c -1.87563,3.003883 -4.22826,5.242211 -7.06263,6.713286 -2.84493,1.476568 -6.17874,2.222831 -10.00715,2.235007 -3.67215,0.01167 -6.78984,-0.720929 -9.34723,-2.201418 -2.56579,-1.568109 -4.51895,-3.762873 -5.85441,-6.583577 -0.92346,-2.00769 -1.52908,-4.29283 -1.81695,-6.853846 l 46.39252,0.318328 -0.003,-1.449525 c 0.083,-0.724276 0.12449,-1.449133 0.12351,-2.174026 -0.008,-5.959916 -1.18946,-11.052936 -3.55119,-15.28899 -2.28446,-4.327892 -5.5926,-7.681195 -9.93791,-10.060884 -4.36996,-2.393191 -9.71431,-3.683365 -16.05327,-3.860747 -0.60132,-0.01683 -1.19528,-0.02204 -1.78232,-0.01654 z m 68.62061,1.901692 c -5.26383,-0.0037 -10.06631,1.082921 -14.39809,3.269568 -4.56777,2.269479 -8.21566,5.530701 -10.93007,9.78545 -2.6416,4.27183 -3.96222,9.257199 -3.95481,14.945341 0.008,5.608564 1.34144,10.619092 3.9951,15.019756 2.72675,4.305427 6.38485,7.673763 10.96108,10.105326 4.62942,2.336977 9.79128,3.471127 15.474,3.41271 3.89657,-0.04005 7.4563,-0.584685 10.68358,-1.630392 3.21297,-1.118899 5.74858,-2.655012 7.61402,-4.607986 l -0.0238,-13.843082 c -0.85291,1.704073 -2.17458,3.254799 -3.96822,4.652428 -1.79811,1.401104 -3.8763,2.494301 -6.23684,3.27887 -2.36818,0.787123 -4.86378,1.185183 -7.48792,1.192692 -3.19331,0.0091 -6.12026,-0.691899 -8.77773,-2.106848 -2.58623,-1.499129 -4.65469,-3.557556 -6.20118,-6.175333 -1.54977,-2.702446 -2.32833,-5.762805 -2.3332,-9.176702 -0.004,-3.413699 0.76489,-6.419813 2.30682,-9.014952 1.53872,-2.589657 3.60085,-4.610881 6.18207,-6.063713 2.65248,-1.446149 5.57647,-2.134288 8.76898,-2.068608 2.5441,0.05233 5.00113,0.493697 7.37164,1.322401 2.36291,0.826048 4.44444,1.955432 6.24716,3.387905 1.87621,1.35265 3.24228,2.926942 4.10104,4.723228 l -0.0238,-13.952122 c -1.87118,-1.829499 -4.41105,-3.331604 -7.6264,-4.506185 -3.22948,-1.17973 -6.78918,-1.825776 -10.68411,-1.934766 -0.35502,-0.0099 -0.70845,-0.01474 -1.05937,-0.01497 z m 55.42505,1.544093 c -3.77386,-0.02993 -7.20595,0.517083 -10.29086,1.645377 -3.30581,1.209099 -6.17196,3.008498 -8.59274,5.400188 -2.35305,2.324741 -4.17791,5.205368 -5.471,8.640816 -1.29567,3.364859 -1.9407,7.129052 -1.93321,11.287683 0.0101,5.545293 1.13062,10.399797 3.35637,14.553633 2.21914,4.141418 5.3399,7.344863 9.35138,9.610784 3.98937,2.253445 8.62553,3.348532 13.89529,3.294372 h 0.003 c 5.89135,-0.06046 10.89451,-1.275361 15.02802,-3.634404 4.181,-2.420205 7.54697,-5.938885 10.10999,-10.553877 l -10.1415,-4.149617 c -1.58833,2.767187 -3.58193,4.828633 -5.98414,6.183085 -2.41043,1.359104 -5.23502,2.045888 -8.47855,2.056204 -3.10993,0.0099 -5.75087,-0.66484 -7.91683,-2.027267 -2.17263,-1.442661 -3.82691,-3.461475 -4.95938,-6.055444 -0.78303,-1.846054 -1.29696,-3.947038 -1.54307,-6.301941 l 39.32163,0.26975 -0.004,-1.336352 c 0.0698,-0.667665 0.10366,-1.33582 0.10231,-2.004012 -0.0116,-5.493745 -1.0219,-10.186781 -3.03239,-14.088028 -1.94445,-3.985077 -4.75631,-7.069756 -8.44651,-9.254215 -3.70943,-2.195872 -8.24208,-3.372987 -13.61363,-3.5233 -0.25463,-0.0071 -0.50755,-0.01143 -0.75911,-0.01344 z m 61.64945,1.725993 c -2.93976,0.0028 -5.5309,0.653463 -7.76954,1.955435 -2.39636,1.393677 -4.35123,3.569073 -5.86116,6.527768 l -0.0196,-7.778337 -11.2758,-0.30644 0.11885,50.827386 11.27943,-0.106968 -0.0744,-30.691667 c -0.006,-2.26473 0.43833,-4.230478 1.33067,-5.894731 0.89111,-1.662036 2.12577,-2.950826 3.70157,-3.86643 1.64052,-0.912069 3.48271,-1.345761 5.52524,-1.302764 1.96863,0.04145 3.59445,0.509725 4.88032,1.403014 1.28349,0.89162 2.22959,2.171608 2.83911,3.840594 0.60881,1.595496 0.91607,3.6176 0.92242,6.066814 v 0 l 0.078,30.263269 11.08821,-0.105421 -0.0837,-31.301449 c -0.0116,-4.000878 -0.64759,-7.406396 -1.91204,-10.220565 -1.20062,-2.889335 -2.99966,-5.11809 -5.40223,-6.686413 -2.34432,-1.64397 -5.26624,-2.517214 -8.77314,-2.615342 -0.19907,-0.0056 -0.39674,-0.0079 -0.59271,-0.0078 z m -264.06139,4.78472 c 0.22164,-0.0016 0.44423,7.4e-5 0.66766,0.0047 2.21425,0.04537 4.4229,0.520588 6.62543,1.42472 2.2919,0.817676 4.33961,2.05767 6.14536,3.718118 1.8017,1.571241 3.22161,3.560503 4.26176,5.968111 1.13311,2.320393 1.69977,4.972325 1.70119,7.959204 0.001,2.987034 -0.56289,5.672597 -1.69396,8.058941 -1.03816,2.304523 -2.45635,4.269507 -4.2571,5.895247 -1.80487,1.543656 -3.8524,2.747539 -6.14433,3.611147 -2.20261,0.779706 -4.41154,1.173612 -6.62647,1.179774 -3.57588,0.0099 -6.92434,-0.718018 -10.0428,-2.187979 -3.03238,-1.562667 -5.48622,-3.741002 -7.35614,-6.535518 -1.87409,-2.888128 -2.81322,-6.34528 -2.81378,-10.366293 -5.3e-4,-4.020741 0.93726,-7.416996 2.81017,-10.183876 1.86858,-2.847589 4.32107,-4.981347 7.352,-6.40271 2.92203,-1.407007 6.04635,-2.120239 9.37101,-2.143538 z m 79.02567,0.150897 c 0.32923,-0.0058 0.66345,-0.0052 1.00201,0.0021 2.95957,0.06349 5.51862,0.732176 7.6817,2.002978 2.24314,1.268936 3.96499,3.01345 5.16919,5.233789 1.056,1.818764 1.67947,3.902821 1.87172,6.252847 l -31.23996,-0.401008 c 0.17816,-0.873043 0.39771,-1.702855 0.66663,-2.480468 0.79873,-2.392707 1.90776,-4.36321 3.3259,-5.911268 1.50389,-1.62618 3.2702,-2.830775 5.29682,-3.614767 1.84553,-0.682567 3.92142,-1.043495 6.22599,-1.08417 z m 123.20643,2.641182 c 0.2788,-0.0059 0.56179,-0.0056 0.84852,5.29e-4 2.50743,0.05379 4.67694,0.665157 6.51174,1.83193 1.90312,1.165201 3.36532,2.769309 4.38888,4.812625 0.89768,1.673979 1.42825,3.592777 1.59372,5.757273 l -26.45989,-0.340032 c 0.14986,-0.802913 0.33462,-1.566222 0.56121,-2.281515 0.67299,-2.20135 1.60906,-4.014791 2.80707,-5.440495 1.27068,-1.497896 2.76383,-2.608813 4.47825,-3.333128 1.56157,-0.630873 3.3188,-0.966129 5.2705,-1.007174 z" />
    <path
       id="path36"
       style="font-style:normal;font-variant:normal;font-weight:500;font-stretch:normal;font-size:61.7361px;line-height:0.5;font-family:Jost;-inkscape-font-specification:'Jost Medium';text-align:center;letter-spacing:0px;word-spacing:0px;text-anchor:middle;fill:url(#linearGradient408);fill-opacity:1;stroke:none;stroke-width:0.514345"
       d="m 489.08176,118.90188 c -0.30475,0.005 -0.61183,0.0156 -0.92189,0.0326 -2.75249,0.15105 -5.31733,0.79175 -7.69205,1.92546 -2.38318,1.13777 -4.30702,2.75555 -5.76813,4.85397 -1.46452,2.03105 -2.19432,4.56142 -2.18641,7.58713 0.008,3.02585 0.65014,5.46742 1.92493,7.32255 1.33889,1.77505 3.00685,3.19953 5.00126,4.27313 2.05443,0.99394 4.10202,1.84186 6.14328,2.54454 2.03491,0.62932 3.8027,1.27689 5.30511,1.94304 1.49904,0.66465 2.6707,1.4599 3.51657,2.3859 0.84482,0.92485 1.26881,2.09513 1.27281,3.51193 0.004,1.55849 -0.54243,2.8804 -1.64124,3.96668 -1.03595,1.0115 -2.49783,1.59934 -4.38838,1.76268 -1.50323,0.12986 -3.01043,-0.0609 -4.5222,-0.5736 -1.51514,-0.51372 -3.00157,-1.28192 -4.45863,-2.30529 -1.46042,-1.0973 -2.95788,-2.48127 -4.49276,-4.15323 l -6.30555,7.33237 c 1.34835,1.83339 3.02856,3.48983 5.03793,4.96817 2.00345,1.474 4.29864,2.62896 6.88277,3.46645 2.63993,0.75676 5.49759,0.99012 8.57004,0.70281 3.2531,-0.30424 6.06882,-1.20507 8.45219,-2.6996 2.3748,-1.48912 4.19584,-3.41725 5.46788,-5.78464 1.26931,-2.43301 1.89854,-5.1588 1.88981,-8.1809 -0.008,-2.95169 -0.65256,-5.29155 -1.93373,-7.02179 -1.21965,-1.73837 -2.85716,-3.1316 -4.91599,-4.18011 -2.06533,-1.12249 -4.33107,-2.12835 -6.79907,-3.01739 -1.82433,-0.65345 -3.49039,-1.28422 -4.99658,-1.89239 -1.50958,-0.60954 -2.69375,-1.31424 -3.55121,-2.11357 -0.85876,-0.87182 -1.29019,-1.91608 -1.29347,-3.13158 -0.004,-1.35851 0.488,-2.4261 1.47381,-3.20239 0.98433,-0.77516 2.2306,-1.20898 3.73724,-1.30173 2.22102,-0.13666 4.37126,0.36979 6.45181,1.5167 2.1385,1.06845 3.9171,2.4744 5.33818,4.21783 l 5.74125,-7.1298 c -1.21661,-1.54366 -2.72288,-2.89725 -4.52065,-4.06073 -1.73849,-1.2409 -3.67395,-2.15627 -5.80845,-2.74454 -1.87383,-0.57842 -3.87717,-0.8523 -6.01048,-0.82062 z m -47.43069,2.63137 c -0.61352,0.002 -1.23955,0.0198 -1.87791,0.0548 -3.87279,0.21242 -7.37547,1.03503 -10.50221,2.47169 -3.1409,1.44318 -5.86325,3.42791 -8.16229,5.95519 -2.23449,2.45634 -3.96698,5.41337 -5.19401,8.86974 -1.22941,3.38751 -1.84102,7.1132 -1.83243,11.17245 0.0116,5.41276 1.07747,10.06331 3.19308,13.94333 2.10944,3.86868 5.07571,6.75137 8.88783,8.64856 3.79166,1.88701 8.19785,2.59178 13.20694,2.12495 h 0.003 c 5.60102,-0.52202 10.3582,-2.1019 14.28854,-4.73149 3.97607,-2.69345 7.17751,-6.39609 9.6144,-11.10734 l -9.64954,-3.25407 c -1.50969,2.82862 -3.40461,4.99986 -5.68854,6.51227 -2.29159,1.51747 -4.97687,2.41035 -8.06051,2.6758 -2.95629,0.25451 -5.46655,-0.19654 -7.52562,-1.3565 -2.06529,-1.23771 -3.63847,-3.0784 -4.71548,-5.52215 -0.74475,-1.74096 -1.23399,-3.75251 -1.46865,-6.03271 l 37.3879,-2.8422 -0.004,-1.30535 c 0.0661,-0.6579 0.0987,-1.31351 0.0972,-1.96628 -0.0135,-5.36705 -0.97565,-9.87283 -2.88975,-13.52528 -1.85124,-3.73935 -4.52755,-6.52956 -8.03826,-8.37055 -3.08755,-1.61908 -6.77349,-2.42609 -11.06807,-2.41483 z m -53.98482,2.95072 c -0.4505,-2.7e-4 -0.91226,0.0123 -1.3844,0.0382 -3.49264,0.19148 -6.65671,1.17356 -9.4878,2.95021 -2.84232,1.78368 -5.19184,4.28056 -7.04401,7.49101 -0.77906,-2.04625 -1.90772,-3.72541 -3.38791,-5.0369 -1.40517,-1.31857 -3.12504,-2.27143 -5.16196,-2.85874 -2.04269,-0.66702 -4.40582,-0.9282 -7.09258,-0.78083 -2.29942,0.12617 -4.44614,0.59751 -6.4389,1.41542 -1.91821,0.73687 -3.64062,1.81967 -5.16504,3.24838 -1.44703,1.42696 -2.73489,3.20313 -3.86284,5.32887 l -0.0114,-7.9561 -12.96615,0.72192 0.0755,55.12016 12.9713,-1.19838 -0.0491,-33.26723 c -0.004,-2.61306 0.43733,-4.85983 1.32291,-6.73861 0.88453,-1.87647 2.13098,-3.3391 3.73724,-4.38784 1.68289,-1.05142 3.64226,-1.64531 5.87613,-1.78335 2.06831,-0.12792 3.77508,0.2368 5.12268,1.09295 1.34504,0.77635 2.33318,2.04311 2.96675,3.80029 0.63293,1.67758 0.95152,3.88301 0.95602,6.61716 l 0.0543,32.81971 12.75787,-1.17875 -0.0574,-32.53392 c -0.004,-2.5555 0.41695,-4.75208 1.26349,-6.58823 0.92257,-1.83891 2.15267,-3.27037 3.68866,-4.2938 1.60935,-1.02602 3.48345,-1.60426 5.62033,-1.73633 1.97861,-0.12228 3.61191,0.23721 4.90151,1.07642 1.28717,0.76119 2.23338,2.00154 2.84015,3.72122 0.6061,1.64187 0.91159,3.79954 0.91672,6.47403 l 0.0615,32.10346 12.09903,-1.11826 -0.0672,-33.19644 c -0.008,-4.31871 -0.60851,-7.91746 -1.80094,-10.80037 -1.19451,-2.9635 -2.98553,-5.17583 -5.37744,-6.6368 -2.09987,-1.28261 -4.72348,-1.92645 -7.87704,-1.92857 z m -99.84867,5.38933 c -0.88008,-5.3e-4 -1.7825,0.0248 -2.70682,0.0755 -5.57305,0.30524 -10.52568,1.31974 -14.84611,3.04891 -4.34472,1.73888 -7.95407,3.48503 -10.81744,5.23586 l 5.90505,9.12141 c 0.88919,-0.63926 2.22105,-1.43061 3.99357,-2.3735 1.85679,-0.94633 4.01788,-1.82724 6.48023,-2.64222 2.45448,-0.81239 5.11963,-1.30655 7.9933,-1.48415 1.82314,-0.11275 3.51224,-0.0532 5.06844,0.17777 1.55305,0.23052 2.88816,0.67813 4.00648,1.34256 1.20245,0.65801 2.10343,1.5786 2.70422,2.7621 0.60021,1.10117 0.90136,2.50631 0.90329,4.21628 l 0.008,6.93756 c -1.84512,-0.94427 -4.16017,-1.7103 -6.96081,-2.2934 -2.85354,-0.61821 -6.28248,-0.78848 -10.29447,-0.50849 -5.00041,0.34893 -9.27994,1.39328 -12.8266,3.13727 -3.56297,1.75197 -6.33487,4.07808 -8.30698,6.97839 -1.88721,2.81723 -2.83117,6.11047 -2.82825,9.87483 0.004,3.93192 0.99714,7.19334 2.97862,9.77874 1.97657,2.579 4.61784,4.42441 7.91735,5.53715 3.28565,1.10804 6.82149,1.4832 10.604,1.13067 3.50213,-0.32642 6.90123,-1.21822 10.19783,-2.67219 3.36865,-1.53744 6.12048,-3.58532 8.26254,-6.14331 0.4807,-0.57118 0.90631,-1.16575 1.28262,-1.78075 l 0.008,7.53338 13.47878,-1.24593 -0.0491,-39.72056 c -0.004,-3.71237 -1.05899,-6.75435 -3.16775,-9.13122 -2.11463,-2.46433 -5.04013,-4.28141 -8.78655,-5.45031 -2.98923,-0.95823 -6.38786,-1.44019 -10.20143,-1.4423 z m 152.7519,0.7674 c 2.0157,-0.003 3.78597,0.43131 5.31286,1.30121 1.81009,0.98729 3.20082,2.43827 4.17494,4.35323 0.85373,1.56319 1.3536,3.39862 1.51206,5.49837 l -25.14782,1.76113 c 0.14203,-0.796 0.31771,-1.55571 0.53276,-2.27221 0.63871,-2.20283 1.52755,-4.04795 2.6655,-5.53506 1.20702,-1.56343 2.62583,-2.76631 4.25502,-3.6096 1.69598,-0.84563 3.63501,-1.33477 5.81568,-1.46865 0.29797,-0.0183 0.59105,-0.028 0.879,-0.0284 z m -197.98687,3.02772 -14.70298,0.81856 0.005,9.58752 c -0.68589,-0.96121 -1.43303,-1.85896 -2.24483,-2.69079 -2.43861,-2.49878 -5.35519,-4.33776 -8.75502,-5.51439 -3.41418,-1.18158 -7.17684,-1.66183 -11.29233,-1.43609 -5.77769,0.31691 -11.15852,1.82779 -16.13442,4.54339 -5.00655,2.73236 -9.0537,6.51713 -12.12691,11.35538 -3.08497,4.85675 -4.63175,10.63736 -4.63124,17.32813 5.3e-4,6.6035 1.54872,12.11339 4.63538,16.51683 3.07536,4.38737 7.12496,7.577 12.13466,9.57204 4.9794,1.98297 10.3636,2.70013 16.14423,2.16368 4.11757,-0.38211 7.88134,-1.41864 11.29595,-3.10575 3.40012,-1.67995 6.31605,-3.90816 8.75295,-6.68383 0.81119,-0.95239 1.55772,-1.96143 2.24276,-3.02461 l 0.005,8.82944 c 0.002,4.4274 -0.9303,8.13673 -2.80087,11.13263 -1.78109,2.99366 -4.1315,5.32448 -7.05641,6.99236 -2.93567,1.67399 -6.02499,2.68118 -9.27024,3.01738 -3.73861,0.3873 -7.01253,0.0772 -9.81542,-0.93432 -2.71536,-0.93795 -4.85553,-2.41668 -6.41563,-4.4359 -1.563,-1.93593 -2.39444,-4.25148 -2.49287,-6.94428 l -16.00832,1.51876 c 0.19999,5.26193 1.69566,9.73262 4.47983,13.40282 2.87391,3.73525 6.91961,6.45517 12.12019,8.16176 5.16791,1.69587 11.36492,2.13706 18.56682,1.33688 6.00042,-0.66672 11.53196,-2.39352 16.60364,-5.17128 5.03953,-2.76016 9.07488,-6.62953 12.12122,-11.606 3.12635,-4.88172 4.68242,-10.81616 4.67775,-17.81802 z m -32.42903,12.66228 c 1.91847,-0.0258 3.8326,0.27705 5.74228,0.90744 2.2711,0.62694 4.30019,1.65228 6.08955,3.07423 1.78545,1.41882 3.1927,3.24277 4.22352,5.47305 1.123,2.2209 1.68459,4.81957 1.6862,7.79797 0.002,2.97851 -0.55727,5.66041 -1.67793,8.04758 -1.02859,2.38305 -2.43407,4.41566 -4.21835,6.09883 -1.78831,1.68699 -3.81698,3.01207 -6.088,3.97497 -2.18244,0.9575 -4.37083,1.53107 -6.56549,1.71823 -3.54309,0.30221 -6.86146,-0.10684 -9.95133,-1.23092 -3.0045,-1.22327 -5.43559,-3.15087 -7.28845,-5.78413 -1.85697,-2.63912 -2.7876,-5.96583 -2.78846,-9.97512 -7.9e-4,-4.00902 0.92841,-7.47241 2.78381,-10.38489 1.85114,-2.90575 4.28041,-5.19126 7.28328,-6.85747 3.0881,-1.66607 6.40466,-2.60737 9.94668,-2.82825 0.27425,-0.0171 0.54862,-0.0278 0.82269,-0.0315 z m 75.01867,15.56029 c 2.47105,-0.0332 4.83709,0.17155 7.0993,0.61288 1.45841,0.28448 2.87332,0.68879 4.24627,1.2082 v 0.91312 -0.002 c 0.004,2.85078 -0.67847,5.3502 -2.04689,7.50084 -1.37094,2.15458 -3.21802,3.86305 -5.5454,5.12527 -2.3345,1.26611 -4.89406,2.02123 -7.68067,2.2629 -2.18409,0.18933 -4.15552,0.0303 -5.9123,-0.47853 -1.67275,-0.60023 -2.99622,-1.52177 -3.96875,-2.76415 -0.9737,-1.24394 -1.46177,-2.81964 -1.46347,-4.72583 -0.003,-1.82322 0.43937,-3.39085 1.32239,-4.70255 0.88202,-1.31014 2.24793,-2.36661 4.09535,-3.16879 1.93064,-0.88937 4.38142,-1.44536 7.34738,-1.66915 0.84701,-0.0639 1.68262,-0.10161 2.50629,-0.11266 z" />
  </g>
</svg>
