<?xml version="1.0" encoding="UTF-8" standalone="no"?>
<!-- Created with Inkscape (http://www.inkscape.org/) -->

<svg
   width="159.295mm"
   height="78.212105mm"
   viewBox="0 0 159.295 78.212105"
   version="1.1"
   id="svg5"
   inkscape:version="1.1 (c4e8f9ed74, 2021-05-24)"
   sodipodi:docname="techospaic.svg"
   xmlns:inkscape="http://www.inkscape.org/namespaces/inkscape"
   xmlns:sodipodi="http://sodipodi.sourceforge.net/DTD/sodipodi-0.dtd"
   xmlns="http://www.w3.org/2000/svg"
   xmlns:svg="http://www.w3.org/2000/svg">
  <sodipodi:namedview
     id="namedview7"
     pagecolor="#ffffff"
     bordercolor="#111111"
     borderopacity="1"
     inkscape:pageshadow="0"
     inkscape:pageopacity="0"
     inkscape:pagecheckerboard="1"
     inkscape:document-units="mm"
     showgrid="false"
     fit-margin-top="0"
     fit-margin-left="0"
     fit-margin-right="0"
     fit-margin-bottom="0"
     inkscape:zoom="2.6927844"
     inkscape:cx="300.98957"
     inkscape:cy="147.8024"
     inkscape:window-width="1920"
     inkscape:window-height="1011"
     inkscape:window-x="0"
     inkscape:window-y="0"
     inkscape:window-maximized="1"
     inkscape:current-layer="layer1" />
  <defs
     id="defs2" />
  <g
     inkscape:label="Layer 1"
     inkscape:groupmode="layer"
     id="layer1"
     transform="translate(-17.385323,-92.195817)">
    <path
       d="m 17.385323,97.863844 h 7.24248 v 23.262526 h 4.683994 V 97.863844 h 7.281841 V 93.573462 H 17.385323 Z"
       style="font-weight:500;font-size:39.3613px;line-height:1.25;font-family:Jost;-inkscape-font-specification:'Jost Medium';fill:#37abc8;stroke-width:4.62859"
       id="path18549" />
    <path
       d="M 42.812659,121.12637 H 56.707198 V 117.0328 H 42.812659 Z m 0,-23.459332 H 56.707198 V 93.573462 H 42.812659 Z m 0,10.706272 h 13.107313 v -4.01485 H 42.812659 Z M 39.939284,93.573462 v 27.552908 h 4.565911 V 93.573462 Z"
       style="font-weight:500;font-size:39.3613px;line-height:1.25;font-family:Jost;-inkscape-font-specification:'Jost Medium';fill:#37abc8;stroke-width:4.62859"
       id="path18551" />
    <path
       d="m 65.87835,107.34992 q 0,-2.20424 0.747864,-3.97549 0.747865,-1.81062 2.046788,-3.07019 1.338284,-1.298918 3.03082,-1.96806 1.692536,-0.708504 3.581879,-0.708504 1.968065,0 3.542517,0.511697 1.613813,0.511697 2.873375,1.417007 1.259562,0.86595 2.204233,2.00743 v -5.549947 q -1.692536,-1.417007 -3.739324,-2.164872 -2.007426,-0.747864 -5.038246,-0.747864 -3.030821,0 -5.628667,1.062755 -2.597845,1.023394 -4.56591,2.912736 -1.928704,1.889343 -3.030821,4.526552 -1.062755,2.59784 -1.062755,5.74675 0,3.1489 1.062755,5.78611 1.102117,2.59784 3.030821,4.48719 1.968065,1.88934 4.56591,2.9521 2.597846,1.02339 5.628667,1.02339 3.03082,0 5.038246,-0.74787 2.046788,-0.74786 3.739324,-2.16487 v -5.54994 q -0.944671,1.10212 -2.204233,2.00743 -1.259562,0.90531 -2.873375,1.417 -1.574452,0.5117 -3.542517,0.5117 -1.889343,0 -3.581879,-0.66914 -1.692536,-0.70851 -3.03082,-1.96807 -1.298923,-1.29892 -2.046788,-3.07018 -0.747864,-1.81062 -0.747864,-4.01485 z"
       style="font-weight:500;font-size:39.3613px;line-height:1.25;font-family:Jost;-inkscape-font-specification:'Jost Medium';fill:#cd87de;stroke-width:4.62859"
       id="path18553" />
    <path
       d="m 91.463191,108.4914 h 19.680649 v -4.29039 H 91.463191 Z M 108.11302,93.573462 v 27.552908 h 4.64463 V 93.573462 Z m -18.499811,0 v 27.552908 h 4.644634 V 93.573462 Z"
       style="font-weight:500;font-size:39.3613px;line-height:1.25;font-family:Jost;-inkscape-font-specification:'Jost Medium';fill:#37c8ab;stroke-width:4.62859"
       id="path18555" />
    <path
       d="M 138.97221,93.573462 V 112.07327 L 118.85859,92.195817 v 28.930553 h 4.56591 v -18.49981 l 20.11362,19.87746 V 93.573462 Z"
       style="font-weight:500;font-size:39.3613px;line-height:1.25;font-family:Jost;-inkscape-font-specification:'Jost Medium';fill:#37c8ab;stroke-width:4.62859"
       id="path18557" />
    <path
       d="m 152.98481,107.34992 q 0,-2.12551 0.66915,-3.89677 0.7085,-1.81062 1.96806,-3.10954 1.25956,-1.338288 2.9521,-2.046792 1.7319,-0.747864 3.77868,-0.747864 2.08615,0 3.77869,0.747864 1.7319,0.708504 2.99146,2.046792 1.25956,1.29892 1.9287,3.10954 0.66914,1.77126 0.66914,3.89677 0,2.12551 -0.7085,3.93613 -0.66914,1.77126 -1.9287,3.10954 -1.25957,1.29892 -2.99146,2.04679 -1.69254,0.7085 -3.73933,0.7085 -2.04678,0 -3.77868,-0.7085 -1.69254,-0.74787 -2.9521,-2.04679 -1.25956,-1.33828 -1.96806,-3.10954 -0.66915,-1.81062 -0.66915,-3.93613 z m -4.92016,0 q 0,3.07018 1.06276,5.70739 1.06275,2.59784 2.99146,4.56591 1.9287,1.9287 4.52655,3.03082 2.59784,1.06275 5.70738,1.06275 3.10955,0 5.70739,-1.06275 2.63721,-1.10212 4.56591,-3.03082 1.92871,-1.96807 2.99146,-4.56591 1.06276,-2.63721 1.06276,-5.70739 0,-3.07018 -1.06276,-5.66803 -1.06275,-2.637207 -3.03082,-4.526549 -1.9287,-1.928704 -4.56591,-2.991459 -2.59784,-1.062755 -5.66803,-1.062755 -3.07018,0 -5.66802,1.062755 -2.59785,1.062755 -4.56591,2.991459 -1.92871,1.889342 -2.99146,4.526549 -1.06276,2.59785 -1.06276,5.66803 z"
       style="font-weight:500;font-size:39.3613px;line-height:1.25;font-family:Jost;-inkscape-font-specification:'Jost Medium';fill:#37c8ab;stroke-width:4.62859"
       id="path18559" />
    <path
       d="m 23.655864,156.25349 -5.168424,3.64139 q 1.350837,2.87787 3.641389,5.28589 2.349284,2.34928 5.403353,3.81758 3.112801,1.40957 6.695459,1.40957 2.642945,0 5.05096,-0.88098 2.466749,-0.82225 4.404908,-2.40801 1.938159,-1.58578 3.054068,-3.81758 1.174644,-2.29057 1.174644,-5.16844 0,-2.70167 -0.939714,-4.69856 -0.880982,-2.05563 -2.466749,-3.52393 -1.527035,-1.4683 -3.347729,-2.46675 -1.820695,-0.99844 -3.700122,-1.64449 -2.466749,-0.88098 -4.287443,-1.70324 -1.761963,-0.82225 -2.877873,-1.70323 -1.115911,-0.88098 -1.644498,-1.87942 -0.52859,-0.99845 -0.52859,-2.23183 0,-1.17464 0.587321,-2.17309 0.587321,-0.99844 1.820695,-1.58575 1.292106,-0.64607 3.171534,-0.64607 2.114354,0 3.641389,0.82226 1.527035,0.82225 2.642945,2.11436 1.174642,1.2921 1.996891,2.81913 l 5.638281,-3.17153 q -1.057177,-2.17309 -2.936604,-4.16997 -1.820695,-1.9969 -4.522372,-3.289 -2.701676,-1.29211 -6.343067,-1.29211 -3.700122,0 -6.636727,1.40957 -2.877873,1.35084 -4.581102,3.87631 -1.703232,2.46676 -1.703232,5.75575 0,2.87787 1.115911,4.9335 1.115908,2.05563 2.81914,3.4652 1.703231,1.35084 3.582657,2.23182 1.879428,0.88098 3.406462,1.40957 2.584212,0.93971 4.522372,1.93815 1.99689,0.93971 3.112801,2.34928 1.11591,1.35084 1.11591,3.64139 0,1.6445 -0.822249,2.87788 -0.763517,1.23337 -2.173089,1.93816 -1.40957,0.64604 -3.347729,0.64604 -2.290551,0 -4.22871,-0.99844 -1.879428,-0.99844 -3.465194,-2.76041 -1.527035,-1.82069 -2.877873,-4.16997 z"
       style="font-weight:500;font-size:39.3613px;line-height:1.25;font-family:Jost;-inkscape-font-specification:'Jost Medium';fill:#ff5555;stroke-width:6.90645"
       id="path18561" />
    <path
       d="m 54.901287,128.41447 v 41.11247 h 6.930388 v -41.11247 z m 4.111248,6.10815 h 8.281225 q 2.408015,0 4.169978,0.7635 1.761963,0.76352 2.76041,2.23182 0.998445,1.46832 0.998445,3.70014 0,2.17307 -0.998445,3.70012 -0.998447,1.46829 -2.76041,2.23182 -1.761963,0.70477 -4.169978,0.70477 h -8.281225 v 6.10815 h 8.281225 q 4.522371,0 7.811368,-1.52705 3.288998,-1.58575 5.109692,-4.40489 1.820696,-2.87788 1.820696,-6.81292 0,-3.93506 -1.820696,-6.81294 -1.820694,-2.87787 -5.109692,-4.4049 -3.288997,-1.58577 -7.811368,-1.58577 h -8.281225 z"
       style="font-weight:500;font-size:39.3613px;line-height:1.25;font-family:Jost;-inkscape-font-specification:'Jost Medium';fill:#ff5555;stroke-width:6.90645"
       id="path18563" />
    <path
       d="m 89.67054,158.95517 h 21.73088 l -1.35084,-5.87321 H 91.021378 Z m 10.74797,-18.91174 6.51927,15.27035 0.17619,1.70323 5.57955,12.50993 h 7.81137 l -20.08638,-43.40302 -20.086374,43.40302 h 7.811369 l 5.697014,-12.86232 0.117461,-1.52705 z"
       style="font-weight:500;font-size:39.3613px;line-height:1.25;font-family:Jost;-inkscape-font-specification:'Jost Medium';fill:#ff5555;stroke-width:6.90645"
       id="path18565" />
    <path
       d="m 125.26212,128.41447 v 41.11247 h 6.98912 v -41.11247 z"
       style="font-weight:500;font-size:39.3613px;line-height:1.25;font-family:Jost;-inkscape-font-specification:'Jost Medium';fill:#37c871;stroke-width:6.90645"
       id="path18567" />
    <path
       d="m 146.58185,148.97071 q 0,-3.28901 1.1159,-5.93194 1.11592,-2.70168 3.05407,-4.58111 1.99689,-1.93816 4.52237,-2.9366 2.52549,-1.05717 5.34463,-1.05717 2.93659,0 5.28588,0.7635 2.40802,0.76352 4.28745,2.11436 1.87942,1.29211 3.28899,2.99534 v -8.28123 q -2.52547,-2.11435 -5.57955,-3.23026 -2.99534,-1.11591 -7.51771,-1.11591 -4.52237,0 -8.39868,1.58576 -3.87632,1.52705 -6.81292,4.34618 -2.87788,2.81914 -4.52237,6.7542 -1.58578,3.8763 -1.58578,8.57488 0,4.69856 1.58578,8.63362 1.64449,3.87631 4.52237,6.69546 2.9366,2.81914 6.81292,4.4049 3.87631,1.52704 8.39868,1.52704 4.52237,0 7.51771,-1.11592 3.05408,-1.1159 5.57955,-3.23026 v -8.28122 q -1.40957,1.6445 -3.28899,2.99534 -1.87943,1.35084 -4.28745,2.11435 -2.34929,0.76352 -5.28588,0.76352 -2.81914,0 -5.34463,-0.99845 -2.52548,-1.05718 -4.52237,-2.93661 -1.93815,-1.93815 -3.05407,-4.5811 -1.1159,-2.70168 -1.1159,-5.99067 z"
       style="font-weight:500;font-size:39.3613px;line-height:1.25;font-family:Jost;-inkscape-font-specification:'Jost Medium';fill:#ffd42a;stroke-width:6.90645"
       id="path18569" />
  </g>
</svg>
