<?xml version="1.0" encoding="UTF-8" standalone="no"?>
<!-- Created with Inkscape (http://www.inkscape.org/) -->

<svg
   width="256"
   height="256"
   viewBox="0 0 67.733332 67.733335"
   version="1.1"
   id="svg5"
   inkscape:version="1.1 (c4e8f9ed74, 2021-05-24)"
   sodipodi:docname="tile2.svg"
   inkscape:export-filename="/home/user/Development/Engine/raw/gfx/tile2.png"
   inkscape:export-xdpi="96"
   inkscape:export-ydpi="96"
   xmlns:inkscape="http://www.inkscape.org/namespaces/inkscape"
   xmlns:sodipodi="http://sodipodi.sourceforge.net/DTD/sodipodi-0.dtd"
   xmlns="http://www.w3.org/2000/svg"
   xmlns:svg="http://www.w3.org/2000/svg">
  <sodipodi:namedview
     id="namedview7"
     pagecolor="#ffffff"
     bordercolor="#111111"
     borderopacity="1"
     inkscape:pageshadow="0"
     inkscape:pageopacity="0"
     inkscape:pagecheckerboard="1"
     inkscape:document-units="px"
     showgrid="false"
     units="px"
     width="256px"
     inkscape:zoom="2.1986601"
     inkscape:cx="118.93607"
     inkscape:cy="138.72085"
     inkscape:window-width="1920"
     inkscape:window-height="1011"
     inkscape:window-x="0"
     inkscape:window-y="0"
     inkscape:window-maximized="1"
     inkscape:current-layer="layer1" />
  <defs
     id="defs2" />
  <g
     inkscape:label="Layer 1"
     inkscape:groupmode="layer"
     id="layer1">
    <rect
       style="fill:#ffffff;stroke-width:0.608882"
       id="rect31"
       width="67.73333"
       height="67.73333"
       x="0"
       y="0"
       ry="0" />
    <rect
       style="fill:#cccccc;stroke-width:0.152221"
       id="rect674"
       width="16.933332"
       height="16.933332"
       x="0"
       y="0"
       ry="0" />
    <rect
       style="fill:#cccccc;stroke-width:0.152221"
       id="rect694"
       width="16.933332"
       height="16.933332"
       x="16.933332"
       y="16.933332"
       ry="0" />
    <rect
       style="fill:#cccccc;stroke-width:0.152221"
       id="rect732"
       width="16.933332"
       height="16.933332"
       x="33.866665"
       y="33.866665"
       ry="0" />
    <rect
       style="fill:#cccccc;stroke-width:0.152221"
       id="rect734"
       width="16.933332"
       height="16.933332"
       x="50.799995"
       y="50.799995"
       ry="0" />
    <rect
       style="fill:#cccccc;stroke-width:0.152221"
       id="rect736"
       width="16.933332"
       height="16.933332"
       x="1.9073486e-06"
       y="33.866665"
       ry="0" />
    <rect
       style="fill:#cccccc;stroke-width:0.152221"
       id="rect738"
       width="16.933332"
       height="16.933332"
       x="16.933332"
       y="50.799995"
       ry="0" />
    <rect
       style="fill:#cccccc;stroke-width:0.152221"
       id="rect740"
       width="16.933332"
       height="16.933332"
       x="33.866665"
       y="1.9073486e-06"
       ry="0" />
    <rect
       style="fill:#cccccc;stroke-width:0.152221"
       id="rect742"
       width="16.933332"
       height="16.933332"
       x="50.799995"
       y="16.933332"
       ry="0" />
    <path
       style="opacity:0.5;fill:#999999;stroke:none;stroke-width:0.356619px;stroke-linecap:butt;stroke-linejoin:miter;stroke-opacity:1"
       d="m 48.041185,69.317043 -1.407988,8.394142 8.368349,-1.426489 0.510844,-7.477742 z"
       id="path777" />
    <path
       style="opacity:0.5;fill:#999999;stroke:none;stroke-width:0.356619px;stroke-linecap:butt;stroke-linejoin:miter;stroke-opacity:1"
       d="m 1.1657991,43.59842 -5.0532878,2.952779 2.8477732,7.862883 5.3323572,-7.643107 z"
       id="path779" />
    <path
       style="opacity:0.5;fill:#999999;stroke:none;stroke-width:0.356619px;stroke-linecap:butt;stroke-linejoin:miter;stroke-opacity:1"
       d="M 1.4452647,-3.7637461 0.24546084,0.68801748 8.2764705,-1.2218065 7.5589386,-6.4483944 Z"
       id="path781" />
    <path
       style="opacity:0.5;fill:#999999;stroke:none;stroke-width:0.356619px;stroke-linecap:butt;stroke-linejoin:miter;stroke-opacity:1"
       d="m -8.9524722,34.756104 -0.1505823,4.806452 6.7456898,-0.902141 -1.5756746,-4.42138 z"
       id="path783" />
    <path
       style="opacity:0.5;fill:#999999;stroke:none;stroke-width:0.356619px;stroke-linecap:butt;stroke-linejoin:miter;stroke-opacity:1"
       d="m 9.2953342,45.606672 5.0985158,6.520312 -7.1676226,3.627099 0.966199,-6.065519 z"
       id="path785" />
    <path
       style="opacity:0.5;fill:#999999;stroke:none;stroke-width:0.356619px;stroke-linecap:butt;stroke-linejoin:miter;stroke-opacity:1"
       d="m 25.001749,32.066941 5.381536,-4.445477 2.734362,0.402794 1.729716,3.994073 z"
       id="path787" />
    <path
       style="opacity:0.5;fill:#999999;stroke:none;stroke-width:0.356619px;stroke-linecap:butt;stroke-linejoin:miter;stroke-opacity:1"
       d="m 33.573757,37.343852 1.364156,3.543336 -7.125593,4.367357 -1.406186,-4.283594 z"
       id="path789" />
    <path
       style="opacity:0.5;fill:#999999;stroke:none;stroke-width:0.356619px;stroke-linecap:butt;stroke-linejoin:miter;stroke-opacity:1"
       d="m 57.918077,63.181992 8.368346,-1.426487 -3.119248,3.140348 -0.150582,4.806452 z"
       id="path791" />
    <path
       style="opacity:0.5;fill:#999999;stroke:none;stroke-width:0.356619px;stroke-linecap:butt;stroke-linejoin:miter;stroke-opacity:1"
       d="m -11.513146,40.5551 3.3624516,-0.415432 2.8477732,7.862885 -2.734362,-0.402795 z"
       id="path793" />
    <path
       style="opacity:0.5;fill:#999999;stroke:none;stroke-width:0.356619px;stroke-linecap:butt;stroke-linejoin:miter;stroke-opacity:1"
       d="m -8.6056558,67.627316 3.6917959,-0.810398 4.21310025,4.91993 -8.41573845,3.368211 z"
       id="path795" />
    <path
       style="opacity:0.5;fill:#999999;stroke:none;stroke-width:0.356619px;stroke-linecap:butt;stroke-linejoin:miter;stroke-opacity:1"
       d="m 52.935992,6.8844144 -4.202638,8.2881416 6.210223,7.447453 5.332358,-7.643109 z"
       id="path797" />
    <path
       style="opacity:0.5;fill:#999999;stroke:none;stroke-width:0.356619px;stroke-linecap:butt;stroke-linejoin:miter;stroke-opacity:1"
       d="m 25.41408,63.228391 8.368344,-1.426487 6.210222,7.447451 -9.329469,-4.307105 z"
       id="path799" />
    <path
       style="opacity:0.5;fill:#999999;stroke:none;stroke-width:0.356619px;stroke-linecap:butt;stroke-linejoin:miter;stroke-opacity:1"
       d="M 9.1019008,54.437193 5.4992602,66.074374 3.769546,62.080302 0.56215671,50.796474 Z"
       id="path801" />
    <path
       style="opacity:0.5;fill:#999999;stroke:none;stroke-width:0.356619px;stroke-linecap:butt;stroke-linejoin:miter;stroke-opacity:1"
       d="m 25.707038,27.830344 -0.717532,-5.226592 -7.313483,7.136415 8.539749,3.640721 z"
       id="path803" />
    <path
       style="opacity:0.5;fill:#999999;stroke:none;stroke-width:0.356619px;stroke-linecap:butt;stroke-linejoin:miter;stroke-opacity:1"
       d="M 3.9219439,24.999483 7.7630591,35.107484 10.882308,31.967138 11.39315,24.489394 Z"
       id="path805" />
    <path
       style="opacity:0.5;fill:#999999;stroke:none;stroke-width:0.356619px;stroke-linecap:butt;stroke-linejoin:miter;stroke-opacity:1"
       d="m 25.277931,55.885496 7.167621,-3.627098 -5.098513,-6.520313 -6.037112,-0.251 z"
       id="path807" />
    <path
       style="opacity:0.5;fill:#999999;stroke:none;stroke-width:0.356619px;stroke-linecap:butt;stroke-linejoin:miter;stroke-opacity:1"
       d="m 51.801402,55.648131 7.445097,-8.14314 -2.510893,12.476032 z"
       id="path809" />
    <path
       style="opacity:0.5;fill:#999999;stroke:none;stroke-width:0.356619px;stroke-linecap:butt;stroke-linejoin:miter;stroke-opacity:1"
       d="m 40.020249,1.0224864 -7.125593,4.3673605 10.288047,0.4486739 6.68316,-4.86464475 z"
       id="path811" />
    <path
       style="opacity:0.5;fill:#999999;stroke:none;stroke-width:0.356619px;stroke-linecap:butt;stroke-linejoin:miter;stroke-opacity:1"
       d="m 36.765298,12.246617 3.162455,4.816031 4.953443,-8.8587134 -2.734362,-0.4027943 z"
       id="path813" />
    <path
       style="opacity:0.5;fill:#999999;stroke:none;stroke-width:0.356619px;stroke-linecap:butt;stroke-linejoin:miter;stroke-opacity:1"
       d="m -5.3209681,24.957817 -1.4079867,8.39414 8.3683456,-1.426487 0.5108424,-7.477742 z"
       id="path895" />
    <path
       style="opacity:0.5;fill:#999999;stroke:none;stroke-width:0.356619px;stroke-linecap:butt;stroke-linejoin:miter;stroke-opacity:1"
       d="m 59.388431,-3.0719511 -5.05329,2.95277918 2.847775,7.86288552 5.332358,-7.64310971 z"
       id="path897" />
    <path
       style="opacity:0.5;fill:#999999;stroke:none;stroke-width:0.356619px;stroke-linecap:butt;stroke-linejoin:miter;stroke-opacity:1"
       d="m 22.279591,35.643056 -1.199803,4.451765 8.031011,-1.909824 -0.717532,-5.226589 z"
       id="path899" />
    <path
       style="opacity:0.5;fill:#999999;stroke:none;stroke-width:0.356619px;stroke-linecap:butt;stroke-linejoin:miter;stroke-opacity:1"
       d="m 2.8545413,65.071427 -0.1505824,4.806452 6.7456898,-0.902141 -1.575676,-4.42138 z"
       id="path901" />
    <path
       style="opacity:0.5;fill:#999999;stroke:none;stroke-width:0.356619px;stroke-linecap:butt;stroke-linejoin:miter;stroke-opacity:1"
       d="m 32.695838,3.3987325 5.098516,6.5203123 -7.167624,3.6270972 0.9662,-6.0655189 z"
       id="path903" />
    <path
       style="opacity:0.5;fill:#999999;stroke:none;stroke-width:0.356619px;stroke-linecap:butt;stroke-linejoin:miter;stroke-opacity:1"
       d="m 57.798105,25.586221 5.381534,-4.445478 2.734362,0.402795 1.729717,3.994072 z"
       id="path905" />
    <path
       style="opacity:0.5;fill:#999999;stroke:none;stroke-width:0.356619px;stroke-linecap:butt;stroke-linejoin:miter;stroke-opacity:1"
       d="m 71.003947,67.169807 1.364155,3.543336 -7.125593,4.367357 -1.406186,-4.283594 z"
       id="path907" />
    <path
       style="opacity:0.5;fill:#999999;stroke:none;stroke-width:0.356619px;stroke-linecap:butt;stroke-linejoin:miter;stroke-opacity:1"
       d="m 44.296794,49.678811 8.368345,-1.426487 -3.119247,3.140348 -0.150582,4.806451 z"
       id="path909" />
    <path
       style="opacity:0.5;fill:#999999;stroke:none;stroke-width:0.356619px;stroke-linecap:butt;stroke-linejoin:miter;stroke-opacity:1"
       d="m 13.229168,31.351626 3.362452,-0.415431 2.847775,7.862884 -2.734364,-0.402794 z"
       id="path911" />
    <path
       style="opacity:0.5;fill:#999999;stroke:none;stroke-width:0.356619px;stroke-linecap:butt;stroke-linejoin:miter;stroke-opacity:1"
       d="m 57.227962,55.294094 3.691796,-0.810398 4.213098,4.919931 -8.415736,3.368211 z"
       id="path913" />
    <path
       style="opacity:0.5;fill:#999999;stroke:none;stroke-width:0.356619px;stroke-linecap:butt;stroke-linejoin:miter;stroke-opacity:1"
       d="m 40.869744,57.060535 -4.20264,8.288139 6.210225,7.447453 5.332358,-7.643109 z"
       id="path915" />
    <path
       style="opacity:0.5;fill:#999999;stroke:none;stroke-width:0.356619px;stroke-linecap:butt;stroke-linejoin:miter;stroke-opacity:1"
       d="m 16.612436,-4.3121534 8.368345,-1.4264873 6.210224,7.447453 -9.329472,-4.307105 z"
       id="path917" />
    <path
       style="opacity:0.5;fill:#999999;stroke:none;stroke-width:0.356619px;stroke-linecap:butt;stroke-linejoin:miter;stroke-opacity:1"
       d="M 34.387149,15.451838 30.784507,27.089018 29.054791,23.094945 25.847402,11.811118 Z"
       id="path919" />
    <path
       style="opacity:0.5;fill:#999999;stroke:none;stroke-width:0.356619px;stroke-linecap:butt;stroke-linejoin:miter;stroke-opacity:1"
       d="M 4.0115587,13.357661 3.2940268,8.1310709 -4.0194564,15.267485 4.520293,18.908205 Z"
       id="path921" />
    <path
       style="opacity:0.5;fill:#999999;stroke:none;stroke-width:0.356619px;stroke-linecap:butt;stroke-linejoin:miter;stroke-opacity:1"
       d="m 40.36489,41.175214 3.841113,10.108 3.119247,-3.140348 0.510842,-7.477741 z"
       id="path923" />
    <path
       style="opacity:0.5;fill:#999999;stroke:none;stroke-width:0.356619px;stroke-linecap:butt;stroke-linejoin:miter;stroke-opacity:1"
       d="m 52.703857,31.531946 7.167623,-3.627098 -5.098515,-6.52031 -6.037112,-0.251 z"
       id="path925" />
    <path
       style="opacity:0.5;fill:#999999;stroke:none;stroke-width:0.356619px;stroke-linecap:butt;stroke-linejoin:miter;stroke-opacity:1"
       d="M -2.1863302,40.12671 5.2587692,31.983569 2.7478761,44.4596 Z"
       id="path927" />
    <path
       style="opacity:0.5;fill:#999999;stroke:none;stroke-width:0.356619px;stroke-linecap:butt;stroke-linejoin:miter;stroke-opacity:1"
       d="m 17.800484,53.784799 -7.125592,4.367356 10.288046,0.448674 6.68316,-4.864641 z"
       id="path929" />
    <path
       style="opacity:0.5;fill:#999999;stroke:none;stroke-width:0.356619px;stroke-linecap:butt;stroke-linejoin:miter;stroke-opacity:1"
       d="m -4.4123547,65.956332 3.1624529,4.816031 4.953442,-8.858713 -2.73436085,-0.402794 z"
       id="path931" />
    <path
       style="opacity:0.5;fill:#999999;stroke:none;stroke-width:0.356619px;stroke-linecap:butt;stroke-linejoin:miter;stroke-opacity:1"
       d="m 31.77358,44.499462 -1.407987,8.394142 8.368347,-1.426488 0.510842,-7.477743 z"
       id="path933" />
    <path
       style="opacity:0.5;fill:#999999;stroke:none;stroke-width:0.356619px;stroke-linecap:butt;stroke-linejoin:miter;stroke-opacity:1"
       d="m 26.800028,56.403566 -5.053288,2.952779 2.847773,7.862884 5.332359,-7.643108 z"
       id="path935" />
    <path
       style="opacity:0.5;fill:#999999;stroke:none;stroke-width:0.356619px;stroke-linecap:butt;stroke-linejoin:miter;stroke-opacity:1"
       d="m 37.662065,38.127434 -1.199804,4.451765 8.03101,-1.909824 -0.71753,-5.226589 z"
       id="path937" />
    <path
       style="opacity:0.5;fill:#999999;stroke:none;stroke-width:0.356619px;stroke-linecap:butt;stroke-linejoin:miter;stroke-opacity:1"
       d="m 75.81437,15.325267 -0.150582,4.806452 6.745693,-0.902141 -1.575676,-4.42138 z"
       id="path939" />
    <path
       style="opacity:0.5;fill:#999999;stroke:none;stroke-width:0.356619px;stroke-linecap:butt;stroke-linejoin:miter;stroke-opacity:1"
       d="m 48.101813,0.15805647 5.098514,6.52031273 -7.167622,3.6270988 0.9662,-6.0655191 z"
       id="path941" />
    <path
       style="opacity:0.5;fill:#999999;stroke:none;stroke-width:0.356619px;stroke-linecap:butt;stroke-linejoin:miter;stroke-opacity:1"
       d="m 37.807561,59.299842 5.381538,-4.445477 2.734362,0.402794 1.729715,3.994072 z"
       id="path943" />
    <path
       style="opacity:0.5;fill:#999999;stroke:none;stroke-width:0.356619px;stroke-linecap:butt;stroke-linejoin:miter;stroke-opacity:1"
       d="m 14.071215,57.752225 1.364156,3.543338 -7.1255937,4.367354 -1.4061859,-4.283591 z"
       id="path945" />
    <path
       style="opacity:0.5;fill:#999999;stroke:none;stroke-width:0.356619px;stroke-linecap:butt;stroke-linejoin:miter;stroke-opacity:1"
       d="m 47.716925,58.417784 8.368345,-1.426487 -3.119248,3.140348 -0.150582,4.806453 z"
       id="path947" />
    <path
       style="opacity:0.5;fill:#999999;stroke:none;stroke-width:0.356619px;stroke-linecap:butt;stroke-linejoin:miter;stroke-opacity:1"
       d="m 31.076766,30.378594 3.362452,-0.415432 2.847773,7.862885 -2.734362,-0.402794 z"
       id="path949" />
    <path
       style="opacity:0.5;fill:#999999;stroke:none;stroke-width:0.356619px;stroke-linecap:butt;stroke-linejoin:miter;stroke-opacity:1"
       d="m 42.137466,22.105026 3.691796,-0.810398 4.213099,4.91993 -8.415737,3.368212 z"
       id="path951" />
    <path
       style="opacity:0.5;fill:#999999;stroke:none;stroke-width:0.356619px;stroke-linecap:butt;stroke-linejoin:miter;stroke-opacity:1"
       d="m 21.773786,2.1956225 -4.202637,8.2881415 6.210222,7.447451 5.332356,-7.643107 z"
       id="path953" />
    <path
       style="opacity:0.5;fill:#999999;stroke:none;stroke-width:0.356619px;stroke-linecap:butt;stroke-linejoin:miter;stroke-opacity:1"
       d="m 59.525289,13.826784 8.368344,-1.426487 6.210225,7.447452 -9.329472,-4.307104 z"
       id="path955" />
    <path
       style="opacity:0.5;fill:#999999;stroke:none;stroke-width:0.356619px;stroke-linecap:butt;stroke-linejoin:miter;stroke-opacity:1"
       d="M 18.249833,8.9303569 14.647191,20.567538 12.917476,16.573466 9.7100866,5.2896366 Z"
       id="path957" />
    <path
       style="opacity:0.5;fill:#999999;stroke:none;stroke-width:0.356619px;stroke-linecap:butt;stroke-linejoin:miter;stroke-opacity:1"
       d="M 5.9587897,4.610059 5.2412578,-0.61652967 -2.0722229,6.519883 6.467524,10.160603 Z"
       id="path959" />
    <path
       style="opacity:0.5;fill:#999999;stroke:none;stroke-width:0.356619px;stroke-linecap:butt;stroke-linejoin:miter;stroke-opacity:1"
       d="m 4.3720344,11.167161 3.8411125,10.108003 3.1192471,-3.140348 0.510843,-7.477744 z"
       id="path961" />
    <path
       style="opacity:0.5;fill:#999999;stroke:none;stroke-width:0.356619px;stroke-linecap:butt;stroke-linejoin:miter;stroke-opacity:1"
       d="M 54.351315,74.307907 61.518939,70.680808 56.420423,64.160495 50.38331,63.909494 Z"
       id="path963" />
    <path
       style="opacity:0.5;fill:#999999;stroke:none;stroke-width:0.356619px;stroke-linecap:butt;stroke-linejoin:miter;stroke-opacity:1"
       d="M 31.137781,1.0320983 38.582882,-7.1110433 36.071987,5.3649911 Z"
       id="path965" />
    <path
       style="opacity:0.5;fill:#999999;stroke:none;stroke-width:0.356619px;stroke-linecap:butt;stroke-linejoin:miter;stroke-opacity:1"
       d="m 61.33616,28.462838 -7.125593,4.367357 10.288047,0.448674 6.683161,-4.864642 z"
       id="path967" />
    <path
       style="opacity:0.5;fill:#999999;stroke:none;stroke-width:0.356619px;stroke-linecap:butt;stroke-linejoin:miter;stroke-opacity:1"
       d="m 34.271913,24.233606 3.162455,4.816031 4.953443,-8.858715 -2.734362,-0.402794 z"
       id="path969" />
    <path
       style="opacity:0.5;fill:#999999;stroke:none;stroke-width:0.356619px;stroke-linecap:butt;stroke-linejoin:miter;stroke-opacity:1"
       d="m 54.716043,-10.760091 -6.213315,5.8171092 7.5168,3.94484479 4.944127,-5.63322439 z"
       id="path971" />
    <path
       style="opacity:0.5;fill:#999999;stroke:none;stroke-width:0.356619px;stroke-linecap:butt;stroke-linejoin:miter;stroke-opacity:1"
       d="M 13.278224,38.236115 7.4699223,37.516206 4.9614594,45.493822 13.838043,42.655262 Z"
       id="path973" />
    <path
       style="opacity:0.5;fill:#999999;stroke:none;stroke-width:0.356619px;stroke-linecap:butt;stroke-linejoin:miter;stroke-opacity:1"
       d="m 42.456518,29.385533 -3.655293,2.810085 7.542019,3.355971 2.601638,-4.589505 z"
       id="path975" />
    <path
       style="opacity:0.5;fill:#999999;stroke:none;stroke-width:0.356619px;stroke-linecap:butt;stroke-linejoin:miter;stroke-opacity:1"
       d="m 14.165045,21.007058 -3.036636,3.728739 5.908911,3.376829 1.430926,-4.470323 z"
       id="path977" />
    <path
       style="opacity:0.5;fill:#999999;stroke:none;stroke-width:0.356619px;stroke-linecap:butt;stroke-linejoin:miter;stroke-opacity:1"
       d="m 65.034516,6.1276236 0.09519,8.2764884 -7.897989,-1.467121 4.448986,-4.2344512 z"
       id="path979" />
    <path
       style="opacity:0.5;fill:#999999;stroke:none;stroke-width:0.356619px;stroke-linecap:butt;stroke-linejoin:miter;stroke-opacity:1"
       d="m 61.467156,37.011398 6.975081,-0.267265 1.928799,1.979574 -1.049172,4.224188 z"
       id="path981" />
    <path
       style="opacity:0.5;fill:#999999;stroke:none;stroke-width:0.356619px;stroke-linecap:butt;stroke-linejoin:miter;stroke-opacity:1"
       d="M 8.4294224,21.076111 7.3632517,24.720206 -0.9505813,23.866944 0.53143358,19.60899 Z"
       id="path983" />
    <path
       style="opacity:0.5;fill:#999999;stroke:none;stroke-width:0.356619px;stroke-linecap:butt;stroke-linejoin:miter;stroke-opacity:1"
       d="m 17.424437,40.98071 7.516801,3.944845 -4.384976,0.602904 -3.036636,3.72874 z"
       id="path985" />
    <path
       style="opacity:0.5;fill:#999999;stroke:none;stroke-width:0.356619px;stroke-linecap:butt;stroke-linejoin:miter;stroke-opacity:1"
       d="M 6.6618591,2.2327747 9.586425,3.9432079 7.0779607,11.920823 5.1491643,9.9412493 Z"
       id="path987" />
    <path
       style="opacity:0.5;fill:#999999;stroke:none;stroke-width:0.356619px;stroke-linecap:butt;stroke-linejoin:miter;stroke-opacity:1"
       d="m 56.4993,40.570256 3.426023,1.596391 0.362714,6.467176 -8.732865,-2.430341 z"
       id="path989" />
    <path
       style="opacity:0.5;fill:#999999;stroke:none;stroke-width:0.356619px;stroke-linecap:butt;stroke-linejoin:miter;stroke-opacity:1"
       d="m 48.938657,10.829933 -8.37015,4.036833 0.4161,9.68805 8.876583,-2.838562 z"
       id="path991" />
    <path
       style="opacity:0.5;fill:#999999;stroke:none;stroke-width:0.356619px;stroke-linecap:butt;stroke-linejoin:miter;stroke-opacity:1"
       d="m -10.757838,14.014941 7.5167962,3.944845 0.4161003,9.688049 -4.8010723,-9.085146 z"
       id="path993" />
    <path
       style="opacity:0.5;fill:#999999;stroke:none;stroke-width:0.356619px;stroke-linecap:butt;stroke-linejoin:miter;stroke-opacity:1"
       d="m 38.194429,58.218292 -9.92575,7.06275 1.049168,-4.224189 4.298756,-10.9148 z"
       id="path995" />
    <path
       style="opacity:0.5;fill:#999999;stroke:none;stroke-width:0.356619px;stroke-linecap:butt;stroke-linejoin:miter;stroke-opacity:1"
       d="m 54.663709,37.419911 2.601639,-4.589505 -10.143658,1.233533 4.577827,8.076238 z"
       id="path997" />
    <path
       style="opacity:0.5;fill:#999999;stroke:none;stroke-width:0.356619px;stroke-linecap:butt;stroke-linejoin:miter;stroke-opacity:1"
       d="m 75.015638,27.863331 -3.08149,10.364859 4.384975,-0.602905 4.944127,-5.633224 z"
       id="path999" />
    <path
       style="opacity:0.5;fill:#999999;stroke:none;stroke-width:0.356619px;stroke-linecap:butt;stroke-linejoin:miter;stroke-opacity:1"
       d="m 9.0110824,5.269997 7.8979886,1.4671211 -0.09519,-8.2764878 -4.645918,-3.863311 z"
       id="path1001" />
    <path
       style="opacity:0.5;fill:#999999;stroke:none;stroke-width:0.356619px;stroke-linecap:butt;stroke-linejoin:miter;stroke-opacity:1"
       d="M 62.268915,49.615066 73.128147,47.661269 63.56102,56.053295 Z"
       id="path1003" />
    <path
       style="opacity:0.5;fill:#999999;stroke:none;stroke-width:0.356619px;stroke-linecap:butt;stroke-linejoin:miter;stroke-opacity:1"
       d="m 68.170306,59.321756 -8.313834,-0.853262 7.904559,6.600242 8.263985,0.18952 z"
       id="path1005" />
    <path
       style="opacity:0.5;fill:#999999;stroke:none;stroke-width:0.356619px;stroke-linecap:butt;stroke-linejoin:miter;stroke-opacity:1"
       d="m 45.204228,64.794515 -0.409276,5.74698 9.313155,-4.03467 -1.928799,-1.979576 z"
       id="path1007" />
  </g>
</svg>
