<?xml version="1.0" encoding="UTF-8" standalone="no"?>
<!-- Created with Inkscape (http://www.inkscape.org/) -->

<svg
   width="210mm"
   height="190mm"
   viewBox="0 0 210 190"
   version="1.1"
   id="svg5"
   inkscape:version="1.2.1 (9c6d41e410, 2022-07-14, custom)"
   sodipodi:docname="trestle-architecture-no-cre.svg"
   xmlns:inkscape="http://www.inkscape.org/namespaces/inkscape"
   xmlns:sodipodi="http://sodipodi.sourceforge.net/DTD/sodipodi-0.dtd"
   xmlns="http://www.w3.org/2000/svg"
   xmlns:svg="http://www.w3.org/2000/svg">
  <sodipodi:namedview
     id="namedview7"
     pagecolor="#ffffff"
     bordercolor="#666666"
     borderopacity="1.0"
     inkscape:showpageshadow="2"
     inkscape:pageopacity="0.0"
     inkscape:pagecheckerboard="0"
     inkscape:deskcolor="#d1d1d1"
     inkscape:document-units="mm"
     showgrid="false"
     inkscape:zoom="1.1168202"
     inkscape:cx="397.10959"
     inkscape:cy="359.05512"
     inkscape:window-width="1920"
     inkscape:window-height="1011"
     inkscape:window-x="0"
     inkscape:window-y="0"
     inkscape:window-maximized="1"
     inkscape:current-layer="layer1" />
  <defs
     id="defs2" />
  <g
     inkscape:label="Layer 1"
     inkscape:groupmode="layer"
     id="layer1">
    <path
       style="fill:#dbe3e2;stroke:#6f918a;stroke-width:0.529167;stroke-linejoin:round;paint-order:stroke fill markers"
       id="path871"
       d="m 56.140482,129.97296 c -0.09445,1.37231 -0.143897,2.74686 -0.183351,4.12167 -0.05965,1.02888 -0.02802,2.05222 0.0636,3.07731 0.09204,0.94529 0.438103,1.80401 0.894583,2.62592 0.752049,1.24656 1.989129,1.97854 3.242106,2.6384 1.363869,0.63723 2.809727,1.06364 4.292589,1.30499 1.573425,0.2607 3.159046,0.4188 4.749745,0.52179 1.345475,0.0794 2.69349,0.092 4.040891,0.0975 1.372238,0.002 2.744475,-5.3e-4 4.116713,-0.002 0.543803,-5.3e-4 1.087607,-0.001 1.631413,-0.001 1.414211,-7.9e-4 1.412925,-2.00091 -0.0013,-2 v 0 c -0.544102,2.7e-4 -1.088202,8e-4 -1.632305,0.001 -1.368761,0.002 -2.737524,0.004 -4.106288,0.002 -1.307195,-0.005 -2.614999,-0.0169 -3.920358,-0.0934 -1.52796,-0.0982 -3.050913,-0.25017 -4.562215,-0.50077 -1.271074,-0.19961 -2.507819,-0.57107 -3.681354,-1.10207 -0.907905,-0.47188 -1.850806,-0.96392 -2.425669,-1.84555 -0.325099,-0.5708 -0.578294,-1.16359 -0.64653,-1.82523 -0.08494,-0.9469 -0.114163,-1.89096 -0.05645,-2.84162 0.03995,-1.39398 0.09459,-2.78722 0.184173,-4.179 0,-1.41421 -2.000001,-1.41421 -2.000001,0 z" />
    <path
       style="fill:#dbe3e2;stroke:#6f918a;stroke-width:0.529167;stroke-linejoin:round;paint-order:stroke fill markers"
       id="path877"
       d="m 139.09978,144.30001 c 1.4971,-0.0274 2.99148,0.0182 4.48606,0.10014 1.17487,0.0734 2.35155,0.10273 3.5284,0.11681 1.22278,0.0102 2.44562,0.009 3.66843,0.009 1.08501,-5.3e-4 2.17002,-0.001 3.25503,-0.001 1.09297,-0.0124 2.161,-0.21788 3.17949,-0.60673 1.05944,-0.50519 1.95103,-1.28184 2.75163,-2.1275 0.80733,-0.88652 1.28127,-1.67089 1.66336,-2.80846 0.33312,-1.09056 0.39065,-2.23033 0.42618,-3.36177 -0.0236,-0.90594 0.0663,-1.80536 0.14067,-2.70654 0.13595,-0.82664 0.28833,-1.64111 0.3271,-2.48046 0.0392,-0.52722 -0.0647,-1.04657 -0.14113,-1.56502 -0.20686,-1.39901 -2.18535,-1.10645 -1.97848,0.29255 v 0 c 0.0582,0.39229 0.14865,0.78471 0.12159,1.18362 -0.0345,0.81474 -0.2126,1.59903 -0.32232,2.40501 -0.077,0.93513 -0.16839,1.86901 -0.14647,2.80891 -0.0288,0.94169 -0.0627,1.89267 -0.32857,2.80355 -0.25124,0.80604 -0.64483,1.43292 -1.21772,2.05724 -0.59449,0.63497 -1.2514,1.22033 -2.02189,1.63531 -0.78109,0.3135 -1.61309,0.45084 -2.45386,0.47029 -1.08503,2.3e-4 -2.17007,5.3e-4 -3.2551,0.001 -1.21471,2.7e-4 -2.42944,0.001 -3.64411,-0.009 -1.1483,-0.0136 -2.29642,-0.0422 -3.44278,-0.11396 -1.531,-0.0838 -3.06195,-0.13048 -4.59551,-0.10314 -1.41422,0 -1.41422,2.00001 0,2.00001 z" />
    <path
       style="fill:#dbe3e2;stroke:#6f918a;stroke-width:0.529167;stroke-linejoin:round;paint-order:stroke fill markers"
       id="path879"
       d="m 85.277147,146.99912 c -0.406199,0.89342 -1.036037,1.52028 -1.77754,2.13613 -0.723559,0.59301 -1.577194,0.94133 -2.445906,1.25911 -1.257488,0.42755 -2.566427,0.69548 -3.87872,0.88888 -1.37744,0.11389 -2.717784,0.46214 -4.081592,0.66912 -1.197378,0.15679 -2.405629,0.17044 -3.608327,0.26635 -1.230209,0.0652 -2.451867,0.1314 -3.664757,0.35613 -1.137587,0.25347 -2.216314,0.68382 -3.253407,1.20663 -1.04481,0.53118 -2.003088,1.19838 -2.908657,1.93787 -0.50515,0.39447 -0.929071,0.87516 -1.347581,1.35674 -0.926928,1.06808 0.583568,2.37896 1.510498,1.31088 v 0 c 0.34358,-0.39651 0.685927,-0.79777 1.103789,-1.11989 0.79129,-0.64926 1.629005,-1.23399 2.543263,-1.70021 0.868809,-0.43928 1.769154,-0.8055 2.721292,-1.02639 1.142301,-0.21806 2.296136,-0.25717 3.454836,-0.32811 1.250096,-0.10007 2.506533,-0.11112 3.750395,-0.28283 1.361324,-0.20829 2.699851,-0.55141 4.074512,-0.66805 1.447252,-0.21705 2.890742,-0.51158 4.276056,-0.99051 1.081463,-0.40105 2.139772,-0.85582 3.036472,-1.60078 0.991015,-0.83175 1.759905,-1.64696 2.312035,-2.83456 0.591502,-1.28457 -1.225159,-2.12108 -1.816661,-0.83651 z" />
    <path
       style="fill:#dbe3e2;stroke:#6f918a;stroke-width:0.529167;stroke-linejoin:round;paint-order:stroke fill markers"
       id="path885"
       d="m 108.41564,146.53117 c 0.0908,1.34616 0.14759,2.69358 0.18413,4.04222 0.0283,1.17761 0.0376,2.35553 0.0412,3.53344 -0.0804,0.71193 0.12087,1.39758 0.19461,2.09549 0.0307,0.48273 0.0119,0.967 0.002,1.45017 -0.006,0.32644 -0.003,0.16496 -0.008,0.48444 -0.0212,1.41405 1.97858,1.44403 1.99977,0.03 v 0 c 0.005,-0.31237 0.002,-0.15441 0.008,-0.47388 0.0117,-0.57792 0.034,-1.15758 -0.0166,-1.73433 -0.0821,-0.6204 -0.24728,-1.22429 -0.17973,-1.85812 -0.004,-1.1939 -0.0132,-2.38782 -0.042,-3.58142 -0.0361,-1.33047 -0.0869,-2.66031 -0.18339,-3.98798 0,-1.41421 -2,-1.41421 -2,0 z" />
    <path
       style="fill:#dbe3e2;stroke:#6f918a;stroke-width:0.529167;stroke-linejoin:round;paint-order:stroke fill markers"
       id="path887"
       d="m 133.95385,146.38967 c 0.32847,0.91797 0.74234,1.80677 1.21562,2.65864 0.59188,1.03023 1.5219,1.71165 2.53821,2.27946 1.51703,0.82079 3.19356,1.26726 4.86427,1.65057 1.97347,0.34518 3.96153,0.58726 5.93447,0.93649 1.16171,0.23889 2.32873,0.45192 3.40862,0.95567 0.60688,0.30455 1.1374,0.71159 1.53693,1.26116 0.32024,0.48127 0.47989,1.04139 0.60114,1.60095 0.0512,0.25472 0.0779,0.513 0.10343,0.7712 0.14191,1.40707 2.13181,1.20637 1.9899,-0.2007 v 0 c -0.0346,-0.33735 -0.0714,-0.67475 -0.14155,-1.00707 -0.19241,-0.84179 -0.45465,-1.67177 -0.96534,-2.38077 -0.62329,-0.79078 -1.374,-1.42907 -2.29128,-1.86294 -1.24119,-0.5613 -2.55864,-0.85241 -3.89337,-1.1069 -1.9405,-0.34325 -3.89468,-0.58792 -5.83739,-0.91683 -1.49012,-0.33905 -2.99022,-0.72704 -4.34569,-1.45309 -0.6935,-0.37345 -1.34595,-0.81256 -1.75743,-1.50458 -0.41342,-0.73029 -0.76092,-1.50096 -1.05442,-2.28683 -0.42821,-1.34783 -2.33432,-0.74226 -1.90612,0.60557 z" />
    <path
       style="fill:#e6e6e6;stroke:#999999;stroke-width:0.529167;stroke-linejoin:round;paint-order:stroke fill markers"
       id="path646"
       d="m 173.82855,93.29321 c 0,0.942923 0,1.885847 0,2.828769 0,1.301441 0,2.602884 0,3.904321 0,1.26346 0,2.52691 0,3.79036 0,1.00731 0,2.01463 0,3.02194 0,0.72027 0,1.44054 0,2.1608 0,0.37032 0,0.74063 0,1.11094 0,1.41422 2,1.41422 2,0 v 0 c 0,-0.37031 0,-0.74062 0,-1.11094 0,-0.72026 0,-1.44053 0,-2.1608 0,-1.00731 0,-2.01463 0,-3.02194 0,-1.26345 0,-2.5269 0,-3.79036 0,-1.301437 0,-2.60288 0,-3.904321 0,-0.942922 0,-1.885846 0,-2.828769 0,-1.414213 -2,-1.414213 -2,0 z" />
    <path
       style="fill:#e6e6e6;stroke:#999999;stroke-width:0.529167;stroke-linejoin:round;paint-order:stroke fill markers"
       id="path648"
       d="m 173.82855,61.543208 c 0,0.942923 0,1.885847 0,2.828769 0,1.301441 0,2.602884 0,3.904324 0,1.263454 0,2.526906 0,3.790358 0,1.007311 0,2.014622 0,3.021933 0,0.72027 0,1.44054 0,2.160807 0,0.370313 0,0.740627 0,1.11094 0,1.414214 2,1.414214 2,0 v 0 c 0,-0.370313 0,-0.740627 0,-1.11094 0,-0.720267 0,-1.440537 0,-2.160807 0,-1.007311 0,-2.014622 0,-3.021933 0,-1.263452 0,-2.526904 0,-3.790358 0,-1.30144 0,-2.602883 0,-3.904324 0,-0.942922 0,-1.885846 0,-2.828769 0,-1.414213 -2,-1.414213 -2,0 z" />
    <path
       style="fill:#e6e6e6;stroke:#999999;stroke-width:0.529167;stroke-linejoin:round;paint-order:stroke fill markers"
       id="path446"
       d="m 52.120167,93.29321 c 0,0.942923 0,1.885847 0,2.828769 0,1.301441 0,2.602884 0,3.904321 0,1.26346 0,2.52691 0,3.79036 0,1.00731 0,2.01463 0,3.02194 0,0.72027 0,1.44054 0,2.1608 0,0.37032 0,0.74063 0,1.11094 0,1.41422 2.000002,1.41422 2.000002,0 v 0 c 0,-0.37031 0,-0.74062 0,-1.11094 0,-0.72026 0,-1.44053 0,-2.1608 0,-1.00731 0,-2.01463 0,-3.02194 0,-1.26345 0,-2.5269 0,-3.79036 0,-1.301437 0,-2.60288 0,-3.904321 0,-0.942922 0,-1.885846 0,-2.828769 0,-1.414213 -2.000002,-1.414213 -2.000002,0 z" />
    <path
       style="fill:#e6e6e6;stroke:#999999;stroke-width:0.529167;stroke-linejoin:round;paint-order:stroke fill markers"
       id="path446-2"
       d="m 190.00422,63.548994 v 2.828769 3.904321 3.79036 3.02194 28.619136 1.11094 c 0,1.41422 2,0 2,0 v 0 -1.11094 -28.619136 -3.02194 -3.79036 -3.904321 -2.828769 c 0,-1.414213 -2,-1.414213 -2,0 z"
       sodipodi:nodetypes="scccccssccccccss" />
    <path
       style="fill:#dbe3e2;stroke:#6f918a;stroke-width:0.529167;stroke-linejoin:round;paint-order:stroke fill markers"
       id="path1791"
       d="m 108.7878,116.75273 c -1.52333,0 -3.04666,0 -4.56998,0 -1.32213,0 -2.64427,0 -3.9664,0 -1.414212,0 -1.414212,2 0,2 v 0 c 1.32213,0 2.64427,0 3.9664,0 1.52332,0 3.04665,0 4.56998,0 1.41421,0 1.41421,-2 0,-2 z" />
    <path
       style="fill:#e6e6e6;stroke:#999999;stroke-width:0.529167;stroke-linejoin:round;paint-order:stroke fill markers"
       id="path1503"
       d="m 52.120167,61.543208 c 0,0.942923 0,1.885847 0,2.828769 0,1.301441 0,2.602884 0,3.904324 0,1.263454 0,2.526906 0,3.790358 0,1.007311 0,2.014622 0,3.021933 0,0.72027 0,1.44054 0,2.160807 0,0.370313 0,0.740627 0,1.11094 0,1.414214 2.000002,1.414214 2.000002,0 v 0 c 0,-0.370313 0,-0.740627 0,-1.11094 0,-0.720267 0,-1.440537 0,-2.160807 0,-1.007311 0,-2.014622 0,-3.021933 0,-1.263452 0,-2.526904 0,-3.790358 0,-1.30144 0,-2.602883 0,-3.904324 0,-0.942922 0,-1.885846 0,-2.828769 0,-1.414213 -2.000002,-1.414213 -2.000002,0 z" />
    <text
       xml:space="preserve"
       style="font-size:11.2889px;line-height:1.25;font-family:Figtree;-inkscape-font-specification:Figtree;text-align:center;text-anchor:middle;stroke-width:0.264583"
       x="105.24529"
       y="19.645323"
       id="text113"><tspan
         sodipodi:role="line"
         id="tspan111"
         style="font-style:normal;font-variant:normal;font-weight:bold;font-stretch:normal;font-size:11.2889px;font-family:'Open Sans';-inkscape-font-specification:'Open Sans';text-align:center;text-anchor:middle;stroke-width:0.264583"
         x="105.24529"
         y="19.645323">Trestle Engine Architecture</tspan></text>
    <rect
       style="fill:#f4d7d7;stroke:#c83737;stroke-width:0.529167;stroke-linejoin:round;paint-order:stroke fill markers"
       id="rect325"
       width="92.214821"
       height="25.828491"
       x="107.60597"
       y="104.13624"
       ry="3" />
    <text
       xml:space="preserve"
       style="font-size:4.23333px;line-height:1.25;font-family:Figtree;-inkscape-font-specification:Figtree;text-align:center;text-anchor:middle;stroke-width:0.264583"
       x="153.6586"
       y="111.5304"
       id="text329"><tspan
         sodipodi:role="line"
         id="tspan327"
         style="font-style:normal;font-variant:normal;font-weight:bold;font-stretch:normal;font-size:4.23333px;font-family:'Open Sans';-inkscape-font-specification:'Open Sans';text-align:center;text-anchor:middle;stroke-width:0.264583"
         x="153.6586"
         y="111.5304">Compute</tspan></text>
    <text
       xml:space="preserve"
       style="font-size:4.23333px;line-height:1.25;font-family:Figtree;-inkscape-font-specification:Figtree;text-align:center;text-anchor:middle;stroke-width:0.264583"
       x="153.53561"
       y="119.4679"
       id="text333"><tspan
         sodipodi:role="line"
         style="font-style:normal;font-variant:normal;font-weight:normal;font-stretch:normal;font-size:4.23333px;font-family:'Open Sans';-inkscape-font-specification:'Open Sans';text-align:center;text-anchor:middle;stroke-width:0.264583"
         x="153.53561"
         y="119.4679"
         id="tspan1427">Provides the ability to run on both linear</tspan><tspan
         sodipodi:role="line"
         style="font-style:normal;font-variant:normal;font-weight:normal;font-stretch:normal;font-size:4.23333px;font-family:'Open Sans';-inkscape-font-specification:'Open Sans';text-align:center;text-anchor:middle;stroke-width:0.264583"
         x="153.53561"
         y="124.88918"
         id="tspan319">and parallel compute easily</tspan></text>
    <rect
       style="fill:#d7f4e3;stroke:#2ca05a;stroke-width:0.529167;stroke-linejoin:round;paint-order:stroke fill markers"
       id="rect325-3"
       width="173.72314"
       height="25.828491"
       x="10.179337"
       y="72.222145"
       ry="3" />
    <text
       xml:space="preserve"
       style="font-size:4.23333px;line-height:1.25;font-family:Figtree;-inkscape-font-specification:Figtree;text-align:center;text-anchor:middle;stroke-width:0.264583"
       x="96.931358"
       y="79.616302"
       id="text329-67"><tspan
         sodipodi:role="line"
         id="tspan327-5"
         style="font-style:normal;font-variant:normal;font-weight:bold;font-stretch:normal;font-size:4.23333px;font-family:'Open Sans';-inkscape-font-specification:'Open Sans';text-align:center;text-anchor:middle;stroke-width:0.264583"
         x="96.931358"
         y="79.616302">Melon Libraries</tspan></text>
    <text
       xml:space="preserve"
       style="font-size:4.23333px;line-height:1.25;font-family:Figtree;-inkscape-font-specification:Figtree;text-align:center;text-anchor:middle;stroke-width:0.264583"
       x="96.877609"
       y="87.758759"
       id="text333-3"><tspan
         sodipodi:role="line"
         style="font-style:normal;font-variant:normal;font-weight:normal;font-stretch:normal;font-size:4.23333px;font-family:'Open Sans';-inkscape-font-specification:'Open Sans';text-align:center;text-anchor:middle;stroke-width:0.264583"
         x="96.877609"
         y="87.758759"
         id="tspan319-6">Librar(y|ies) that provide most of the low and mid level functionality to implement</tspan><tspan
         sodipodi:role="line"
         style="font-style:normal;font-variant:normal;font-weight:normal;font-stretch:normal;font-size:4.23333px;font-family:'Open Sans';-inkscape-font-specification:'Open Sans';text-align:center;text-anchor:middle;stroke-width:0.264583"
         x="96.877609"
         y="93.180038"
         id="tspan444">game engines</tspan></text>
    <rect
       style="fill:#d7d7f4;stroke:#2c2ca0;stroke-width:0.529167;stroke-linejoin:round;paint-order:stroke fill markers"
       id="rect325-2"
       width="92.174751"
       height="21.071152"
       x="10.179337"
       y="45.859325"
       ry="3" />
    <text
       xml:space="preserve"
       style="font-size:4.23333px;line-height:1.25;font-family:Figtree;-inkscape-font-specification:Figtree;text-align:center;text-anchor:middle;stroke-width:0.264583"
       x="56.161293"
       y="53.25349"
       id="text329-6"><tspan
         sodipodi:role="line"
         id="tspan327-1"
         style="font-style:normal;font-variant:normal;font-weight:bold;font-stretch:normal;font-size:4.23333px;font-family:'Open Sans';-inkscape-font-specification:'Open Sans';text-align:center;text-anchor:middle;stroke-width:0.264583"
         x="56.161293"
         y="53.25349">Linear Compute (CPU)</tspan></text>
    <text
       xml:space="preserve"
       style="font-size:4.23333px;line-height:1.25;font-family:Figtree;-inkscape-font-specification:Figtree;text-align:center;text-anchor:middle;stroke-width:0.264583"
       x="56.448612"
       y="61.19099"
       id="text333-0"><tspan
         sodipodi:role="line"
         style="font-style:normal;font-variant:normal;font-weight:normal;font-stretch:normal;font-size:4.23333px;font-family:'Open Sans';-inkscape-font-specification:'Open Sans';text-align:center;text-anchor:middle;stroke-width:0.264583"
         x="56.448608"
         y="61.19099"
         id="tspan470-1">Anything that does linear processing well</tspan></text>
    <rect
       style="fill:#e3f4d7;stroke:#5aa02c;stroke-width:0.529167;stroke-linejoin:round;paint-order:stroke fill markers"
       id="rect325-2-5"
       width="92.174751"
       height="21.071152"
       x="107.87044"
       y="45.859322"
       ry="3" />
    <text
       xml:space="preserve"
       style="font-size:4.23333px;line-height:1.25;font-family:Figtree;-inkscape-font-specification:Figtree;text-align:center;text-anchor:middle;stroke-width:0.264583"
       x="153.8524"
       y="53.25349"
       id="text329-6-9"><tspan
         sodipodi:role="line"
         id="tspan327-1-4"
         style="font-style:normal;font-variant:normal;font-weight:bold;font-stretch:normal;font-size:4.23333px;font-family:'Open Sans';-inkscape-font-specification:'Open Sans';text-align:center;text-anchor:middle;stroke-width:0.264583"
         x="153.8524"
         y="53.25349">Parallel Compute (GPGPU)</tspan></text>
    <text
       xml:space="preserve"
       style="font-size:4.23333px;line-height:1.25;font-family:Figtree;-inkscape-font-specification:Figtree;text-align:center;text-anchor:middle;stroke-width:0.264583"
       x="154.13972"
       y="61.19099"
       id="text333-0-9"><tspan
         sodipodi:role="line"
         style="font-style:normal;font-variant:normal;font-weight:normal;font-stretch:normal;font-size:4.23333px;font-family:'Open Sans';-inkscape-font-specification:'Open Sans';text-align:center;text-anchor:middle;stroke-width:0.264583"
         x="154.13972"
         y="61.19099"
         id="tspan470-1-0">Anything that does parallel processing well</tspan></text>
    <rect
       style="fill:#f4eed7;stroke:#c8ab37;stroke-width:0.529167;stroke-linejoin:round;paint-order:stroke fill markers"
       id="rect387"
       width="60"
       height="21.071152"
       x="10.179337"
       y="156.68748"
       ry="3" />
    <text
       xml:space="preserve"
       style="font-size:4.23333px;line-height:1.25;font-family:Figtree;-inkscape-font-specification:Figtree;text-align:center;text-anchor:middle;stroke-width:0.264583"
       x="40.240318"
       y="164.08163"
       id="text391"><tspan
         sodipodi:role="line"
         id="tspan389"
         style="font-style:normal;font-variant:normal;font-weight:bold;font-stretch:normal;font-size:4.23333px;font-family:'Open Sans';-inkscape-font-specification:'Open Sans';text-align:center;text-anchor:middle;stroke-width:0.264583"
         x="40.240318"
         y="164.08163">Scripting</tspan></text>
    <text
       xml:space="preserve"
       style="font-size:4.23333px;line-height:1.25;font-family:Figtree;-inkscape-font-specification:Figtree;text-align:center;text-anchor:middle;stroke-width:0.264583"
       x="40.166939"
       y="172.01918"
       id="text395"><tspan
         sodipodi:role="line"
         id="tspan393"
         style="font-style:normal;font-variant:normal;font-weight:normal;font-stretch:normal;font-size:4.23333px;font-family:'Open Sans';-inkscape-font-specification:'Open Sans';text-align:center;text-anchor:middle;stroke-width:0.264583"
         x="40.166939"
         y="172.01918">behaviour and content</tspan></text>
    <rect
       style="fill:#f4d7ee;stroke:#c837ab;stroke-width:0.529167;stroke-linejoin:round;paint-order:stroke fill markers"
       id="rect387-95"
       width="52.969929"
       height="21.071259"
       x="147.11531"
       y="156.68748"
       ry="3" />
    <text
       xml:space="preserve"
       style="font-size:4.23333px;line-height:1.25;font-family:Figtree;-inkscape-font-specification:Figtree;text-align:center;text-anchor:middle;stroke-width:0.264583"
       x="171.5903"
       y="164.08167"
       id="text391-0"><tspan
         sodipodi:role="line"
         id="tspan389-4"
         style="font-style:normal;font-variant:normal;font-weight:bold;font-stretch:normal;font-size:4.23333px;font-family:'Open Sans';-inkscape-font-specification:'Open Sans';text-align:center;text-anchor:middle;stroke-width:0.264583"
         x="171.5903"
         y="164.08167">Physics</tspan></text>
    <text
       xml:space="preserve"
       style="font-size:4.23333px;line-height:1.25;font-family:Figtree;-inkscape-font-specification:Figtree;text-align:center;text-anchor:middle;stroke-width:0.264583"
       x="171.51692"
       y="172.01921"
       id="text395-8"><tspan
         sodipodi:role="line"
         id="tspan393-7"
         style="font-style:normal;font-variant:normal;font-weight:normal;font-stretch:normal;font-size:4.23333px;font-family:'Open Sans';-inkscape-font-specification:'Open Sans';text-align:center;text-anchor:middle;stroke-width:0.264583"
         x="171.51692"
         y="172.01921">objects, scenes, rules</tspan></text>
    <rect
       style="fill:#d7eef4;stroke:#37abc8;stroke-width:0.529167;stroke-linejoin:round;paint-order:stroke fill markers"
       id="rect387-9"
       width="65"
       height="21.071259"
       x="76.000168"
       y="156.68748"
       ry="3" />
    <text
       xml:space="preserve"
       style="font-size:4.23333px;line-height:1.25;font-family:Figtree;-inkscape-font-specification:Figtree;text-align:center;text-anchor:middle;stroke-width:0.264583"
       x="108.45779"
       y="164.08163"
       id="text391-2"><tspan
         sodipodi:role="line"
         id="tspan389-6"
         style="font-style:normal;font-variant:normal;font-weight:bold;font-stretch:normal;font-size:4.23333px;font-family:'Open Sans';-inkscape-font-specification:'Open Sans';text-align:center;text-anchor:middle;stroke-width:0.264583"
         x="108.45779"
         y="164.08163">Graphics</tspan></text>
    <text
       xml:space="preserve"
       style="font-size:4.23333px;line-height:1.25;font-family:Figtree;-inkscape-font-specification:Figtree;text-align:center;text-anchor:middle;stroke-width:0.264583"
       x="108.4919"
       y="172.01918"
       id="text395-6"><tspan
         sodipodi:role="line"
         id="tspan393-4"
         style="font-style:normal;font-variant:normal;font-weight:normal;font-stretch:normal;font-size:4.23333px;font-family:'Open Sans';-inkscape-font-specification:'Open Sans';text-align:center;text-anchor:middle;stroke-width:0.264583"
         x="108.4919"
         y="172.01918">display and user interface</tspan></text>
    <text
       xml:space="preserve"
       style="font-size:4.23333px;line-height:1.25;font-family:Figtree;-inkscape-font-specification:Figtree;text-align:center;text-anchor:middle;stroke-width:0.264583"
       x="105.09198"
       y="35.166294"
       id="text1212"><tspan
         sodipodi:role="line"
         style="font-style:normal;font-variant:normal;font-weight:normal;font-stretch:normal;font-size:4.23333px;font-family:'Open Sans';-inkscape-font-specification:'Open Sans';text-align:center;text-anchor:middle;stroke-width:0.264583"
         x="105.09198"
         y="35.166294"
         id="tspan1210">This is one possible architecture for the testle engine.</tspan></text>
    <circle
       id="path1495"
       style="fill:#f4eed7;stroke:#c8ab37;stroke-width:0.264583"
       cx="51.826912"
       cy="67.423599"
       r="0.023802886" />
    <rect
       style="fill:#dbe3e2;stroke:#6f918a;stroke-width:0.529167;stroke-linejoin:round;paint-order:stroke fill markers"
       id="rect325-9"
       width="92.214821"
       height="25.828491"
       x="10.179337"
       y="103.87147"
       ry="3" />
    <text
       xml:space="preserve"
       style="font-size:4.23333px;line-height:1.25;font-family:Figtree;-inkscape-font-specification:Figtree;text-align:center;text-anchor:middle;stroke-width:0.264583"
       x="56.189598"
       y="113.91663"
       id="text464"><tspan
         sodipodi:role="line"
         id="tspan462"
         style="font-style:normal;font-variant:normal;font-weight:bold;font-stretch:normal;font-size:4.23333px;font-family:'Open Sans';-inkscape-font-specification:'Open Sans';text-align:center;text-anchor:middle;stroke-width:0.264583"
         x="56.189598"
         y="113.91663">Engine Code</tspan></text>
    <text
       xml:space="preserve"
       style="font-size:4.23333px;line-height:1.25;font-family:Figtree;-inkscape-font-specification:Figtree;text-align:center;text-anchor:middle;stroke-width:0.264583"
       x="56.189598"
       y="121.85413"
       id="text468"><tspan
         sodipodi:role="line"
         id="tspan466"
         style="font-style:normal;font-variant:normal;font-weight:normal;font-stretch:normal;font-size:4.23333px;font-family:'Open Sans';-inkscape-font-specification:'Open Sans';text-align:center;text-anchor:middle;stroke-width:0.264583"
         x="56.189598"
         y="121.85413">Main code for the game engine</tspan></text>
    <rect
       style="fill:#ffd5f6;stroke:#ff00cc;stroke-width:0.529167;stroke-linejoin:round;paint-order:stroke fill markers"
       id="rect713"
       width="65.529167"
       height="7.8969879"
       x="75.735588"
       y="139.39702"
       ry="3" />
    <text
       xml:space="preserve"
       style="font-size:4.23333px;line-height:1.25;font-family:Figtree;-inkscape-font-specification:Figtree;text-align:center;text-anchor:middle;stroke-width:0.264583"
       x="108.4919"
       y="144.44519"
       id="text739"><tspan
         sodipodi:role="line"
         id="tspan737"
         style="font-style:italic;font-variant:normal;font-weight:normal;font-stretch:normal;font-size:4.23333px;font-family:'Open Sans';-inkscape-font-specification:'Open Sans';text-align:center;text-anchor:middle;stroke-width:0.264583"
         x="108.4919"
         y="144.44519">... are used by ...</tspan></text>
  </g>
</svg>
